<svg width="1110" height="66" viewBox="0 0 1110 66" fill="none" xmlns="http://www.w3.org/2000/svg">
<path d="M376.233 30.2561C376.233 32.434 376.233 33.6075 376.59 33.9166C376.88 34.1725 377.324 34.2932 378.652 34.2932C379.555 34.2932 380.217 34.2739 380.642 33.8151C380.845 33.593 381.047 33.1149 381.086 32.7914C381.105 32.6368 381.134 32.5354 381.274 32.5354C381.395 32.5354 381.41 32.6224 381.41 32.8252C381.41 33.0135 381.289 34.2884 381.154 34.781C381.052 35.1576 380.965 35.2397 380.082 35.2397C377.633 35.2397 376.508 35.1383 375.132 35.1383C374.741 35.1383 373.669 35.1914 372.988 35.1914C372.766 35.1914 372.65 35.1383 372.65 35.0224C372.65 34.9355 372.717 34.8872 372.92 34.8872C373.176 34.8872 373.379 34.8534 373.533 34.8196C373.876 34.752 373.958 34.3753 374.026 33.8828C374.113 33.168 374.113 31.8207 374.113 30.2561V27.2621C374.113 24.6737 374.113 24.2004 374.079 23.6547C374.045 23.0752 373.91 22.8048 373.35 22.6841C373.21 22.6503 373.007 22.6358 372.79 22.6358C372.601 22.6358 372.5 22.602 372.5 22.4812C372.5 22.3605 372.621 22.3315 372.877 22.3315C373.678 22.3315 374.745 22.3798 375.209 22.3798C375.615 22.3798 376.861 22.3315 377.522 22.3315C377.759 22.3315 377.88 22.3653 377.88 22.4812C377.88 22.5971 377.778 22.6358 377.575 22.6358C377.387 22.6358 377.117 22.6551 376.909 22.6841C376.45 22.771 376.315 23.0559 376.281 23.6547C376.247 24.2004 376.247 24.6737 376.247 27.2621V30.2561H376.233Z" fill="#686868"/>
<path d="M387.46 30.7488C387.373 30.7488 387.34 30.7826 387.306 30.884L386.388 33.3179C386.219 33.7429 386.132 34.1485 386.132 34.3562C386.132 34.6652 386.287 34.8825 386.813 34.8825H387.069C387.277 34.8825 387.325 34.9163 387.325 35.0177C387.325 35.153 387.224 35.1868 387.035 35.1868C386.49 35.1868 385.761 35.1336 385.229 35.1336C385.046 35.1336 384.109 35.1868 383.22 35.1868C382.998 35.1868 382.897 35.153 382.897 35.0177C382.897 34.9163 382.965 34.8825 383.1 34.8825C383.254 34.8825 383.491 34.8632 383.626 34.8487C384.408 34.7473 384.732 34.1678 385.07 33.3179L389.344 22.6311C389.547 22.1385 389.648 21.9502 389.822 21.9502C389.972 21.9502 390.078 22.1047 390.247 22.4959C390.652 23.4327 393.376 30.3721 394.467 32.9605C395.115 34.4914 395.607 34.728 395.964 34.8149C396.22 34.868 396.476 34.8825 396.679 34.8825C396.814 34.8825 396.901 34.897 396.901 35.0177C396.901 35.153 396.747 35.1868 396.119 35.1868C395.491 35.1868 394.265 35.1868 392.903 35.153C392.594 35.1336 392.391 35.1336 392.391 35.0177C392.391 34.9163 392.459 34.8825 392.628 34.8632C392.748 34.8294 392.864 34.6749 392.782 34.4721L391.42 30.8647C391.386 30.7778 391.333 30.744 391.251 30.744H387.456L387.46 30.7488ZM390.933 29.8989C391.015 29.8989 391.034 29.8506 391.015 29.7975L389.484 25.5962C389.464 25.5286 389.45 25.4465 389.397 25.4465C389.344 25.4465 389.31 25.5286 389.295 25.5962L387.731 29.783C387.712 29.8506 387.731 29.9037 387.798 29.9037H390.928L390.933 29.8989Z" fill="#686868"/>
<path d="M417.348 34.8485C416.039 35.3363 413.948 35.6985 412.219 35.6985C402.643 35.6985 398.92 28.6093 398.92 22.7227C398.92 17.3962 402.745 10.0801 412.321 10.0801C420.129 10.0801 425.552 14.8174 425.552 22.4619C425.552 28.2134 421.926 31.84 419.869 33.2115L426.436 36.5774C433.332 40.1074 437.678 40.4648 439.9 40.4648C441.6 40.4648 444.014 40.204 446.269 39.3203C446.467 39.2527 446.631 39.1561 446.762 39.1561C446.926 39.1561 447.056 39.2865 447.056 39.4507C447.056 39.6487 446.892 39.7453 446.665 39.8418C444.705 40.7883 441.01 42.2902 436.307 42.2902C431.603 42.2902 427.909 40.9815 422.486 37.8474L417.353 34.8437L417.348 34.8485ZM420.974 23.3456C420.974 15.4356 416.073 11.6447 411.563 11.6447C407.052 11.6447 403.459 14.3925 403.459 21.9693C403.459 29.5462 408.163 34.0614 413.427 34.0614C416.039 34.0614 420.974 32.9169 420.974 23.3456Z" fill="#686868"/>
<path d="M433.39 22.6504C433.39 18.5505 433.39 17.7972 433.337 16.9327C433.284 16.0152 433.067 15.5854 432.178 15.3971C431.961 15.344 431.502 15.3198 431.125 15.3198C430.831 15.3198 430.667 15.2667 430.667 15.0784C430.667 14.89 430.855 14.8369 431.261 14.8369C432.69 14.8369 434.39 14.919 435.201 14.919C435.848 14.919 437.548 14.8369 438.519 14.8369C438.924 14.8369 439.113 14.89 439.113 15.0784C439.113 15.2667 438.948 15.3198 438.683 15.3198C438.388 15.3198 438.224 15.344 437.901 15.3971C437.171 15.5323 436.959 15.9911 436.906 16.9327C436.853 17.7972 436.853 18.5505 436.853 22.6504V26.4268C436.853 30.3383 437.635 31.9851 438.958 33.0619C440.175 34.0616 441.411 34.1678 442.329 34.1678C443.517 34.1678 444.97 33.7911 446.052 32.7143C447.539 31.2317 447.617 28.8027 447.617 26.0211V22.6504C447.617 18.5505 447.617 17.7972 447.564 16.9327C447.51 16.0152 447.298 15.5854 446.405 15.3971C446.187 15.344 445.729 15.3198 445.434 15.3198C445.139 15.3198 444.975 15.2667 444.975 15.0784C444.975 14.89 445.164 14.8369 445.54 14.8369C446.916 14.8369 448.616 14.919 448.645 14.919C448.969 14.919 450.669 14.8369 451.721 14.8369C452.098 14.8369 452.286 14.89 452.286 15.0784C452.286 15.2667 452.122 15.3198 451.804 15.3198C451.504 15.3198 451.345 15.344 451.021 15.3971C450.292 15.5323 450.075 15.9911 450.022 16.9327C449.968 17.7972 449.968 18.5505 449.968 22.6504V25.5382C449.968 28.5322 449.669 31.7146 447.409 33.6559C445.492 35.3026 443.551 35.5972 441.798 35.5972C440.368 35.5972 437.775 35.5151 435.81 33.7332C434.433 32.4921 433.409 30.4929 433.409 26.5861V22.6456L433.39 22.6504Z" fill="#686868"/>
<path d="M460.23 22.6503C460.23 18.5504 460.23 17.797 460.177 16.9326C460.124 16.0151 459.853 15.5563 459.259 15.4211C458.96 15.339 458.612 15.3149 458.289 15.3149C458.018 15.3149 457.859 15.2618 457.859 15.0445C457.859 14.8803 458.076 14.8271 458.506 14.8271C459.53 14.8271 461.23 14.9092 462.012 14.9092C462.688 14.9092 464.277 14.8271 465.306 14.8271C465.653 14.8271 465.871 14.8803 465.871 15.0445C465.871 15.2618 465.706 15.3149 465.436 15.3149C465.165 15.3149 464.953 15.339 464.625 15.3922C463.895 15.5274 463.683 15.9861 463.63 16.9278C463.577 17.7922 463.577 18.5456 463.577 22.6455V27.3925C463.577 30.0098 463.577 32.1395 463.683 33.2985C463.765 34.0277 463.953 34.5106 464.76 34.6216C465.136 34.6748 465.735 34.7279 466.136 34.7279C466.431 34.7279 466.566 34.81 466.566 34.9452C466.566 35.1335 466.349 35.2156 466.054 35.2156C464.272 35.2156 462.572 35.1335 461.848 35.1335C461.23 35.1335 459.53 35.2156 458.448 35.2156C458.096 35.2156 457.907 35.1335 457.907 34.9452C457.907 34.81 458.014 34.7279 458.337 34.7279C458.743 34.7279 459.066 34.6748 459.308 34.6216C459.849 34.5154 460.008 34.0518 460.09 33.2743C460.225 32.1395 460.225 30.0098 460.225 27.3925V22.6455L460.23 22.6503Z" fill="#686868"/>
<path d="M476.63 31.5501C476.683 33.6555 477.036 34.3558 477.576 34.5441C478.035 34.7035 478.552 34.7324 478.982 34.7324C479.276 34.7324 479.44 34.7856 479.44 34.9497C479.44 35.1622 479.199 35.2202 478.818 35.2202C477.065 35.2202 475.988 35.1381 475.471 35.1381C475.23 35.1381 473.959 35.2202 472.559 35.2202C472.207 35.2202 471.965 35.1912 471.965 34.9497C471.965 34.7904 472.129 34.7324 472.4 34.7324C472.747 34.7324 473.235 34.7083 473.612 34.5972C474.317 34.3847 474.423 33.5976 474.447 31.2507L474.689 15.2808C474.689 14.74 474.771 14.3633 475.041 14.3633C475.336 14.3633 475.582 14.711 476.036 15.1987C476.36 15.5464 480.459 19.9457 484.4 23.8573C486.235 25.6924 489.876 29.5798 490.335 30.0096H490.47L490.205 17.8982C490.176 16.2515 489.934 15.7396 489.287 15.4691C488.881 15.3098 488.234 15.3098 487.858 15.3098C487.534 15.3098 487.428 15.2277 487.428 15.0683C487.428 14.851 487.727 14.8269 488.128 14.8269C489.533 14.8269 490.828 14.909 491.393 14.909C491.687 14.909 492.716 14.8269 494.034 14.8269C494.387 14.8269 494.657 14.8559 494.657 15.0683C494.657 15.2277 494.498 15.3098 494.169 15.3098C493.899 15.3098 493.686 15.3098 493.363 15.3871C492.605 15.6044 492.392 16.1694 492.363 17.6809L492.064 34.7035C492.064 35.2974 491.958 35.5389 491.716 35.5389C491.417 35.5389 491.093 35.2443 490.799 34.9449C489.099 33.3272 485.646 29.7923 482.84 27.0155C479.899 24.1036 476.905 20.728 476.417 20.2162H476.335L476.63 31.5452V31.5501Z" fill="#686868"/>
<path d="M506.416 16.3388L502.398 16.445C500.833 16.4982 500.186 16.6334 499.781 17.2274C499.51 17.633 499.375 17.9566 499.322 18.169C499.269 18.3864 499.187 18.4926 499.022 18.4926C498.834 18.4926 498.781 18.3574 498.781 18.0628C498.781 17.633 499.293 15.175 499.351 14.9577C499.428 14.61 499.51 14.4458 499.674 14.4458C499.892 14.4458 500.157 14.7162 500.833 14.7693C501.616 14.8514 502.644 14.9046 503.533 14.9046H514.215C515.944 14.9046 516.586 14.6341 516.803 14.6341C516.991 14.6341 517.02 14.7935 517.02 15.1991C517.02 15.7641 516.938 17.6282 516.938 18.3284C516.914 18.5988 516.856 18.7582 516.697 18.7582C516.48 18.7582 516.427 18.623 516.402 18.2173L516.373 17.9228C516.32 17.2225 515.591 16.4644 513.191 16.4112L509.791 16.3292V27.3926C509.791 29.8748 509.791 32.0044 509.927 33.1634C510.009 33.9167 510.168 34.5107 510.979 34.6218C511.356 34.6749 511.95 34.728 512.356 34.728C512.655 34.728 512.79 34.8101 512.79 34.9453C512.79 35.1337 512.573 35.2158 512.278 35.2158C510.496 35.2158 508.797 35.1337 508.043 35.1337C507.42 35.1337 505.725 35.2158 504.643 35.2158C504.296 35.2158 504.103 35.1337 504.103 34.9453C504.103 34.8101 504.209 34.728 504.532 34.728C504.938 34.728 505.262 34.6749 505.503 34.6218C506.044 34.5155 506.208 33.9216 506.285 33.1344C506.421 31.9996 506.421 29.87 506.421 27.3878V16.3243L506.416 16.3388Z" fill="#686868"/>
<path d="M523.598 28.1794C523.462 28.1794 523.409 28.2325 523.356 28.3967L521.898 32.2551C521.627 32.9312 521.492 33.5783 521.492 33.9018C521.492 34.3896 521.734 34.7373 522.569 34.7373H522.975C523.298 34.7373 523.38 34.7904 523.38 34.9546C523.38 35.1671 523.216 35.225 522.922 35.225C522.057 35.225 520.898 35.1429 520.063 35.1429C519.763 35.1429 518.281 35.225 516.88 35.225C516.533 35.225 516.368 35.1719 516.368 34.9546C516.368 34.7952 516.475 34.7373 516.692 34.7373C516.933 34.7373 517.315 34.7131 517.527 34.6842C518.769 34.5248 519.28 33.6073 519.821 32.2551L526.592 15.3146C526.915 14.5323 527.079 14.2329 527.345 14.2329C527.587 14.2329 527.751 14.4744 528.016 15.0973C528.663 16.5799 532.981 27.5854 534.709 31.6901C535.733 34.1192 536.516 34.4958 537.085 34.631C537.491 34.7131 537.897 34.7373 538.22 34.7373C538.437 34.7373 538.568 34.7663 538.568 34.9546C538.568 35.1671 538.326 35.225 537.327 35.225C536.327 35.225 534.386 35.225 532.227 35.1719C531.744 35.1477 531.416 35.1478 531.416 34.9594C531.416 34.8001 531.522 34.7421 531.793 34.718C531.981 34.6648 532.169 34.4234 532.034 34.0998L529.875 28.3822C529.822 28.247 529.74 28.1938 529.605 28.1938H523.588L523.598 28.1794ZM529.103 26.832C529.238 26.832 529.262 26.7499 529.238 26.6678L526.809 20.0037C526.78 19.8975 526.756 19.7622 526.674 19.7622C526.592 19.7622 526.539 19.8975 526.514 20.0037L524.032 26.6389C524.003 26.7451 524.032 26.8272 524.139 26.8272H529.103V26.832Z" fill="#686868"/>
<path d="M537.902 30.3574C538.78 30.3574 539.5 31.077 539.5 31.9559C539.5 32.8347 538.78 33.5543 537.902 33.5543C537.023 33.5543 536.303 32.8347 536.303 31.9559C536.303 31.077 537.023 30.3574 537.902 30.3574ZM537.902 33.2742C538.626 33.2742 539.215 32.685 539.215 31.9607C539.215 31.2363 538.626 30.6472 537.902 30.6472C537.177 30.6472 536.588 31.2363 536.588 31.9607C536.588 32.685 537.177 33.2742 537.902 33.2742ZM537.283 31.0335H537.989C538.428 31.0335 538.631 31.2315 538.631 31.584C538.631 31.9027 538.442 32.0573 538.191 32.0862L538.669 32.8589H538.317L537.863 32.1104H537.617V32.8589H537.283V31.0335ZM537.622 31.8255H537.868C538.075 31.8255 538.302 31.811 538.302 31.5695C538.302 31.3281 538.075 31.3088 537.868 31.3136H537.622V31.8255Z" fill="#686868"/>
<path d="M391.792 46.6509H393.333V55.4205H391.792V46.6509Z" fill="#686868"/>
<path d="M398.683 46.6509H400.113L404.812 52.7162V46.6509H406.328V55.4205H405.039L400.2 49.1813V55.4205H398.683V46.6509Z" fill="#686868"/>
<path d="M411.592 46.6509H413.021L417.72 52.7162V46.6509H419.236V55.4205H417.947L413.108 49.1813V55.4205H411.592V46.6509Z" fill="#686868"/>
<path d="M445.559 54.6143C444.961 55.1696 444.265 55.5221 443.415 55.5221C442.121 55.5221 441.146 54.735 441.146 53.5325V53.5132C441.146 52.615 441.672 51.9679 442.628 51.5623C442.232 51.0552 442.049 50.6158 442.049 50.1087V50.0894C442.049 49.1525 442.807 48.3364 444.053 48.3364C445.159 48.3364 445.907 49.0849 445.907 50.0218V50.0411C445.907 50.9586 445.299 51.5043 444.371 51.852L445.564 53.0689C445.835 52.6681 446.081 52.2142 446.313 51.7216L447.24 52.2094C446.96 52.7647 446.651 53.3152 446.293 53.803L447.39 54.9185L446.482 55.5656L445.559 54.6191V54.6143ZM444.859 53.8996L443.304 52.3156C442.657 52.5957 442.377 53.0206 442.377 53.4698V53.4891C442.377 54.0782 442.865 54.508 443.541 54.508C444.019 54.508 444.458 54.2811 444.854 53.8996H444.859ZM444.821 50.1039V50.0846C444.821 49.6161 444.492 49.2974 444.024 49.2974C443.526 49.2974 443.198 49.6451 443.198 50.1377V50.157C443.198 50.5047 443.338 50.7655 443.729 51.1953C444.444 50.9345 444.825 50.6109 444.825 50.1087L444.821 50.1039Z" fill="#686868"/>
<path d="M457.386 54.1409L458.313 53.0398C459.153 53.7642 459.994 54.1795 461.08 54.1795C462.031 54.1795 462.635 53.7401 462.635 53.0785V53.0543C462.635 52.4266 462.283 52.0933 460.655 51.7118C458.786 51.2627 457.734 50.7122 457.734 49.0945V49.0703C457.734 47.5685 458.984 46.5254 460.728 46.5254C462.007 46.5254 463.021 46.9117 463.91 47.6264L463.084 48.7902C462.297 48.2011 461.505 47.8872 460.703 47.8872C459.8 47.8872 459.274 48.3508 459.274 48.9255V48.9496C459.274 49.6257 459.675 49.9299 461.355 50.3307C463.21 50.7798 464.176 51.4462 464.176 52.8998V52.924C464.176 54.5658 462.886 55.5461 461.042 55.5461C459.699 55.5461 458.434 55.0826 457.381 54.1409H457.386Z" fill="#686868"/>
<path d="M423.345 54.1409L424.273 53.0398C425.113 53.7642 425.953 54.1795 427.04 54.1795C427.991 54.1795 428.595 53.7401 428.595 53.0785V53.0543C428.595 52.4266 428.242 52.0933 426.615 51.7118C424.746 51.2627 423.693 50.7122 423.693 49.0945V49.0703C423.693 47.5685 424.944 46.5254 426.687 46.5254C427.967 46.5254 428.981 46.9117 429.87 47.6264L429.044 48.7902C428.257 48.2011 427.465 47.8872 426.663 47.8872C425.76 47.8872 425.234 48.3508 425.234 48.9255V48.9496C425.234 49.6257 425.634 49.9299 427.315 50.3307C429.169 50.7798 430.135 51.4462 430.135 52.8998V52.924C430.135 54.5658 428.846 55.5461 427.001 55.5461C425.659 55.5461 424.393 55.0826 423.341 54.1409H423.345Z" fill="#686868"/>
<path d="M468.865 51.6972V46.646H470.405V51.6345C470.405 53.2619 471.245 54.1408 472.622 54.1408C473.998 54.1408 474.829 53.315 474.829 51.6972V46.646H476.369V51.62C476.369 54.2373 474.891 55.5557 472.597 55.5557C470.304 55.5557 468.865 54.2422 468.865 51.6972Z" fill="#686868"/>
<path d="M481.585 46.6509H483.125V55.4205H481.585V46.6509Z" fill="#686868"/>
<path d="M490.629 48.0754H487.848V46.646H494.966V48.0754H492.184V55.4205H490.629V48.0754Z" fill="#686868"/>
<path d="M499.602 46.6509H506.107V48.032H501.142V50.3113H505.542V51.6925H501.142V54.0491H506.17V55.4254H499.602V46.6557V46.6509Z" fill="#686868"/>
<path d="M510.419 54.1409L511.346 53.0398C512.187 53.7642 513.027 54.1795 514.113 54.1795C515.065 54.1795 515.668 53.7401 515.668 53.0785V53.0543C515.668 52.4266 515.316 52.0933 513.688 51.7118C511.82 51.2627 510.767 50.7122 510.767 49.0945V49.0703C510.767 47.5685 512.022 46.5254 513.761 46.5254C515.041 46.5254 516.055 46.9117 516.943 47.6264L516.117 48.7902C515.33 48.2011 514.538 47.8872 513.737 47.8872C512.834 47.8872 512.307 48.3508 512.307 48.9255V48.9496C512.307 49.6257 512.708 49.9299 514.389 50.3307C516.243 50.7798 517.209 51.4462 517.209 52.8998V52.924C517.209 54.5658 515.919 55.5461 514.08 55.5461C512.737 55.5461 511.472 55.0826 510.419 54.1409Z" fill="#686868"/>
<path d="M335.992 0.0800781V20.8455C336.115 20.8455 336.237 20.8455 336.355 20.8455L338.483 16.9109L335.992 0.0800781ZM325.403 1.9479L332.512 21.4579C332.624 21.4171 332.742 21.3763 332.859 21.3406L333.512 16.9262L325.408 1.9479H325.403ZM327.164 25.9438C327.225 25.8417 327.286 25.7345 327.352 25.6325L325.015 21.8305L309.179 15.5687L327.169 25.9438H327.164ZM325.949 29.2762C325.969 29.1538 325.995 29.0364 326.02 28.9139L322.525 26.1428L305.5 25.6733L325.949 29.2711V29.2762ZM329.725 23.0042L328.827 18.6307L316.089 7.32681L329.44 23.2339C329.537 23.1573 329.628 23.0808 329.72 23.0042H329.725ZM345.974 33.1701L349.634 36.0688L349.47 35.9412L366.495 36.4056L346.041 32.8077C346.02 32.9302 345.995 33.0476 345.969 33.1701H345.974ZM339.825 21.5906L343.163 18.6256L346.577 1.94279L339.488 21.463C339.6 21.5039 339.718 21.5498 339.83 21.6008L339.825 21.5906ZM350.333 31.0369L366.485 25.658L346.036 29.2711C346.056 29.3885 346.077 29.511 346.097 29.6335L350.333 31.0369ZM342.826 23.4686L346.975 21.8254L355.89 7.3166L342.55 23.2339C342.647 23.3104 342.739 23.3921 342.826 23.4686ZM345.005 26.2602L349.47 26.1326L362.81 15.5432L344.831 25.9387C344.893 26.0407 344.954 26.1479 345.01 26.2551L345.005 26.2602ZM335.992 41.2384C335.875 41.2384 335.752 41.2384 335.63 41.2333L333.507 45.1629L336.003 62.009V41.2436H335.987L335.992 41.2384ZM344.831 36.1402C344.77 36.2423 344.709 36.3495 344.642 36.4566L346.98 40.2586L362.821 46.5204L344.831 36.1453V36.1402ZM342.555 38.8501C342.463 38.9317 342.366 39.0083 342.275 39.0848L343.173 43.4584L365.285 65.959L342.555 38.8501ZM339.488 40.626C339.376 40.6669 339.258 40.7077 339.141 40.7434L338.493 45.1578L346.602 60.131L339.488 40.6209V40.626ZM325.954 32.818C325.934 32.7006 325.913 32.5781 325.898 32.4556L321.662 31.0471L305.505 36.426L325.954 32.8128V32.818ZM327.169 36.1453C327.107 36.0382 327.046 35.931 326.99 35.8238L322.53 35.9463L309.19 46.5306L327.169 36.1402V36.1453ZM328.832 43.4584L325.418 60.1412L332.512 40.6312C332.394 40.5852 332.282 40.5444 332.165 40.4985L328.827 43.4635L328.832 43.4584ZM329.445 38.8552C329.348 38.7786 329.261 38.697 329.169 38.6153L325.02 40.2586L316.105 54.7674L329.45 38.8552H329.445Z" fill="#979797"/>
<path d="M332.854 21.3406C333.844 21.019 334.9 20.8506 335.992 20.8506V0.0800781L332.854 21.3406ZM329.44 23.2339L316.089 7.32681L327.352 25.6325C327.919 24.7241 328.628 23.9177 329.44 23.2339ZM336.36 20.8506C337.452 20.8915 338.503 21.1007 339.483 21.4579L346.571 1.93769L336.355 20.8506H336.36ZM332.507 21.4579L325.398 1.9479L329.72 23.0042C330.552 22.351 331.491 21.8254 332.502 21.4579H332.507ZM366.495 36.4056L346.102 29.6284C346.163 30.0928 346.199 30.5623 346.199 31.0369C346.199 31.6442 346.148 32.2311 346.046 32.8077L366.5 36.4056H366.495ZM327.163 25.9438L309.174 15.5687L326.02 28.9139C326.245 27.8524 326.633 26.8573 327.163 25.9438ZM346.041 29.266L366.49 25.6529L345.005 26.2602C345.5 27.189 345.857 28.1994 346.041 29.266ZM342.55 23.2288L355.89 7.3115L339.825 21.5855C340.82 21.9887 341.739 22.5449 342.55 23.2288ZM344.826 25.9438L362.805 15.5483L342.826 23.4686C343.617 24.1831 344.29 25.015 344.826 25.9438ZM336.007 62.009L339.141 40.7485C338.151 41.07 337.095 41.2436 336.002 41.2436V62.009H336.007ZM339.488 40.626L346.602 60.1361L342.274 39.0848C341.443 39.7381 340.504 40.2586 339.493 40.6312L339.488 40.626ZM342.555 38.8501L365.285 65.959L344.647 36.4515C344.081 37.3548 343.372 38.1662 342.555 38.8501ZM344.831 36.1402L362.82 46.5153L345.974 33.1701C345.75 34.2316 345.362 35.2267 344.836 36.1402H344.831ZM325.418 60.1412L335.635 41.2333C334.543 41.1976 333.492 40.9833 332.512 40.6312L325.418 60.1412ZM327.163 36.1453L309.184 46.5357L329.164 38.6204C328.378 37.906 327.699 37.0741 327.163 36.1453ZM325.954 32.818L305.505 36.4311L326.99 35.8289C326.5 34.9001 326.143 33.8897 325.954 32.818ZM329.445 38.8552L316.099 54.7674L332.17 40.4934C331.175 40.0902 330.256 39.5339 329.445 38.8552ZM325.801 31.042C325.801 30.4398 325.852 29.8529 325.954 29.2711L305.505 25.6733L325.903 32.4556C325.842 31.9912 325.806 31.5217 325.806 31.042H325.801Z" fill="#848484"/>
<g clip-path="url(#clip0_0_230)">
<path d="M69.9725 17.3897C69.9725 6.51663 58.4999 1.08008 44.7966 1.08008C30.456 1.08008 17.0714 7.79581 12.2911 17.7095C10.6977 20.2679 10.0604 23.4659 10.0604 26.344C10.0604 28.9024 10.6977 31.4608 12.2911 33.6994C14.2032 36.5775 18.0274 38.8161 23.445 38.8161C30.1373 38.8161 35.5549 34.9786 35.5549 28.5826C35.5549 28.5826 35.5549 26.6638 33.6428 26.6638C31.7307 26.6638 31.412 27.943 31.412 28.5826C31.7307 33.6994 28.5439 37.5369 23.445 37.5369C17.39 37.5369 14.8406 32.4202 14.8406 26.9836C14.8406 16.1105 23.1263 8.43541 32.0494 5.23744C36.1922 3.63845 40.3351 2.99886 44.7966 2.99886C54.6758 2.99886 62.6428 6.83642 62.6428 17.0699C62.6428 25.3846 55.6318 32.74 47.0274 33.3796L47.3461 32.4202C49.2582 26.0242 51.1703 19.3085 54.6758 14.1918L55.6318 12.9126L55.3131 12.273L53.0824 13.872C36.8296 26.344 36.1922 62.4811 14.5219 62.4811H12.2911C7.51093 61.5217 5.28016 58.6435 5.28016 54.4862L5.59884 51.608C5.59884 50.6486 4.6428 49.3694 3.36807 49.3694C1.45598 49.3694 0.499939 50.9684 0.499939 53.207C0.499939 59.6029 4.96148 63.4405 12.2911 64.0801H14.8406C31.7307 64.0801 42.2472 51.2882 46.7087 35.6181L53.401 34.0192C61.0494 31.7806 69.9725 26.6638 69.9725 17.3897ZM231.863 20.9075H226.126L224.533 24.1055L222.302 29.542H219.434L218.797 31.4608H221.665L218.159 39.1359C215.61 44.5725 211.786 50.009 209.555 50.009C208.918 50.009 208.599 49.6892 208.599 49.0496L209.236 46.811L212.104 41.0547C213.379 38.4963 215.291 34.6588 215.291 32.74C215.291 30.8212 214.016 28.9024 211.467 28.9024C208.918 28.9024 206.368 30.8212 204.137 33.0598L205.412 29.542H199.994L195.214 40.0953C193.621 43.6131 189.797 50.009 187.566 50.009C186.929 50.009 186.61 49.6892 186.61 49.0496L187.247 47.7704L190.115 40.7349L194.896 29.542H188.841L184.06 40.4151C182.467 43.9329 178.643 50.009 176.412 50.009C176.093 50.009 175.456 49.6892 175.456 49.0496L176.412 46.4912L178.961 40.7349L184.06 29.542H178.005L177.049 32.1004C176.093 33.6994 174.5 35.9379 172.269 35.9379C170.994 35.9379 170.357 35.2984 170.038 34.9786C169.72 31.141 167.489 28.9024 163.665 28.9024C158.885 28.9024 155.379 32.1004 152.83 35.6181C151.236 38.1765 150.28 40.7349 149.324 43.6131C147.093 47.1308 144.863 50.009 143.269 50.009C142.632 50.009 142.313 49.6892 142.313 49.0496L143.269 46.4912L147.093 38.1765C148.368 35.6181 149.005 34.0192 149.005 32.1004C149.005 30.1816 147.731 28.9024 145.819 28.9024C142.951 28.9024 139.764 30.8212 137.214 33.3796L137.533 32.1004C137.533 30.1816 136.577 28.9024 134.346 28.9024C131.797 28.9024 128.929 30.5014 126.698 33.3796L128.291 29.542H122.874L118.093 40.0953C115.863 44.8923 112.357 50.009 110.445 50.009C109.808 50.009 109.808 49.6892 109.808 49.0496L111.082 44.8923L117.137 30.8212C117.775 29.8618 114.588 28.9024 111.082 28.9024C107.258 28.9024 103.115 30.8212 100.247 33.3796C98.3351 34.9786 96.7417 35.9379 96.1043 35.9379L95.467 35.6181C95.467 34.6588 97.6977 32.4202 97.6977 30.5014C97.6977 29.542 97.0604 28.9024 96.1043 28.9024C93.8736 28.9024 91.3241 31.141 89.412 33.3796L91.0054 29.542H85.5879L80.8076 40.0953C78.5769 44.8923 75.0714 50.009 73.1593 50.009C72.5219 50.009 72.2032 50.009 72.2032 49.3694C72.2032 48.41 73.1593 46.1714 73.7966 44.8923L79.8516 30.8212C80.489 29.8618 77.6208 29.2222 73.7966 29.2222C68.3791 29.2222 62.9615 32.74 60.0933 36.5775C57.0418 40.0702 55.1484 44.4289 54.6758 49.0496C54.6758 51.9278 55.9505 53.5268 59.1373 53.5268C62.3241 53.5268 65.1922 50.9684 66.7857 49.0496L66.467 50.3288C66.467 52.2476 67.1043 53.5268 69.6538 53.5268C71.8846 53.5268 74.7527 51.9278 76.9835 49.0496L75.0714 53.207H80.8076L86.5439 40.0953C88.456 35.9379 90.6868 33.6994 91.3241 33.6994L91.6428 34.0192C91.6428 34.339 90.6868 35.6181 90.6868 36.5775C90.6868 37.5369 91.3241 38.8161 92.9175 38.8161C94.1923 38.8161 95.467 38.1765 96.7417 37.2171C93.8736 41.3745 91.9615 45.5319 91.9615 49.0496C91.6428 51.9278 93.2362 53.5268 96.1043 53.5268C99.2912 53.5268 102.159 50.6486 104.071 48.7298L103.753 50.009C103.753 51.9278 105.027 53.5268 107.258 53.5268C109.808 53.5268 111.72 51.9278 114.269 49.0496L112.357 53.207H118.412L123.83 40.7349C126.06 35.2984 129.566 32.4202 131.159 32.4202L131.797 33.0598V33.3796L131.478 34.9786L123.511 53.207H129.566L135.302 40.4151C137.533 34.9786 140.401 32.4202 142.313 32.4202C142.951 32.4202 143.269 32.74 143.269 33.3796L142.632 35.2984L137.214 46.811L136.258 50.3288C136.258 52.2476 137.214 53.8466 140.082 53.8466C143.588 53.8466 146.137 51.2882 149.005 47.1308V48.0902C149.324 51.2882 151.236 53.8466 155.698 53.8466C161.115 53.8466 165.577 50.009 168.445 43.9329C169.401 42.0141 170.038 39.7755 170.357 37.2171C170.994 37.5369 171.632 37.8567 172.269 37.5369C173.225 37.5369 174.181 37.5369 174.819 36.8973L173.863 39.1359C172.365 42.7144 170.983 46.3406 169.72 50.009C169.72 52.2476 170.994 53.8466 173.225 53.8466C175.456 53.8466 178.961 51.608 181.511 48.0902L181.192 50.3288C181.192 51.9278 181.83 53.8466 184.379 53.8466C187.247 53.8466 189.478 51.608 191.709 49.0496L189.797 53.207H195.852L200.951 42.3339C203.5 35.9379 206.368 32.4202 208.918 32.4202L209.555 33.0598V33.3796C206.976 38.8844 204.74 44.5451 202.863 50.3288C202.863 52.2476 203.819 53.8466 206.368 53.8466C209.874 53.8466 213.379 50.3288 215.291 47.7704C214.654 49.0496 214.654 50.3288 214.654 51.608C214.654 55.1258 216.566 56.7247 219.434 56.7247C221.346 56.7247 223.258 56.0852 225.17 55.1258C227.401 53.5268 228.994 50.9684 230.588 48.7298L229.632 47.7704C228.357 50.009 226.445 51.9278 224.852 52.8872C223.896 53.8466 222.94 54.1664 221.983 54.1664C220.709 54.1664 219.753 53.5268 219.753 51.9278C219.753 50.3288 220.709 48.0902 221.665 45.2121L224.852 37.8567L227.72 31.4608H231.863L232.5 29.542H228.676L231.863 20.9075ZM61.6868 50.009C61.0494 50.009 60.412 49.6892 60.412 48.41C60.412 45.5319 62.9615 40.0953 65.8296 35.9379C68.0604 33.0598 70.9285 31.141 73.7966 31.141L69.9725 39.4557C67.1043 45.8517 64.2362 50.009 61.6868 50.009ZM98.9725 50.009C98.3351 50.009 97.6977 49.6892 97.6977 48.41C97.6977 45.5319 99.9285 40.0953 103.115 35.9379C105.346 33.0598 108.214 31.141 111.082 31.141L107.258 39.4557C104.39 46.1714 101.522 50.009 98.9725 50.009ZM165.258 33.3796C165.258 36.5775 162.39 44.5725 158.885 49.0496C157.61 50.9684 156.654 51.608 155.379 51.608C154.104 51.608 153.786 50.3288 153.786 48.7298C154.104 45.8517 156.654 38.8161 160.159 34.0192C161.753 32.1004 162.709 31.141 163.983 31.141C165.258 31.141 165.258 32.1004 165.258 33.3796Z" fill="#7E7E7E"/>
</g>
<path d="M753.532 63.4098C770.055 63.4098 783.5 49.8767 783.5 33.245C783.5 16.6034 770.055 3.08008 753.532 3.08008C737.005 3.08008 723.564 16.6034 723.564 33.245C723.564 49.8767 737.005 63.4098 753.532 63.4098ZM753.532 22.4887C759.421 22.4887 764.216 27.3137 764.216 33.2417C764.216 39.1696 759.417 43.9881 753.529 43.9881C747.637 43.9881 742.848 39.1696 742.848 33.2384C742.848 27.3039 747.64 22.4821 753.529 22.4821L753.532 22.4887ZM640.468 63.4098C656.991 63.4098 670.436 49.8767 670.436 33.245C670.436 16.6034 656.991 3.08008 640.468 3.08008C623.948 3.08008 610.5 16.6034 610.5 33.245C610.5 49.8767 623.948 63.4098 640.468 63.4098ZM640.468 22.4887C646.36 22.4887 651.152 27.3137 651.152 33.2417C651.152 39.1696 646.36 43.9881 640.468 43.9881C634.579 43.9881 629.79 39.1696 629.79 33.2384C629.79 27.3039 634.583 22.4821 640.468 22.4821V22.4887ZM696.984 21.8092L687.783 3.47396H666.241L686.362 43.5844V62.4678H707.609V43.5844L727.729 3.47396H706.177L696.987 21.8092H696.984Z" fill="#898989"/>
<path d="M877.038 3.36133V43.2756C877.038 49.2546 876.975 53.0983 876.851 54.8066C876.74 56.4798 876.153 58.0863 875.158 59.4358C874.152 60.8117 872.72 61.8176 871.085 62.2976C869.36 62.8353 866.778 63.0925 863.314 63.0925H855.5V52.651C856.435 52.7211 857.141 52.7585 857.562 52.7585C858.518 52.8125 859.463 52.5259 860.227 51.9496C860.537 51.7084 860.797 51.4082 860.99 51.0663C861.184 50.7244 861.307 50.3476 861.354 49.9576C861.484 48.4369 861.534 46.9104 861.504 45.3845V3.36133H877.038Z" fill="#848484"/>
<path d="M909.223 3.36133L918.135 63.0925H902.293L901.451 52.3377H895.746L894.881 63.0925H878.852L886.778 3.36133H909.223ZM901.035 41.798C900.277 35.0022 899.476 26.6166 898.631 16.6411C897.073 28.1129 896.095 36.4985 895.7 41.798H901.035Z" fill="#848484"/>
<path d="M955.253 3.36133V63.0878H941.632L933.547 35.9296V63.0878H920.585V3.36133H933.547L942.282 30.2483V3.36133H955.253Z" fill="#848484"/>
<path d="M987.934 3.36621H1003.57C1007.81 3.36621 1011.06 3.69353 1013.34 4.3622C1015.62 5.03087 1017.32 5.98945 1018.48 7.24261C1019.64 8.53558 1020.44 10.1091 1020.8 11.8064C1021.2 13.5864 1021.41 16.3483 1021.41 20.0922V25.2966C1021.41 29.1154 1021.02 31.896 1020.23 33.6386C1019.44 35.4014 1018 36.7294 1015.89 37.6693C1013.78 38.6092 1011.03 39.0721 1007.64 39.0721H1003.48V63.0973H987.934V3.36621ZM1003.47 13.6113V28.7943C1003.91 28.7943 1004.29 28.827 1004.62 28.827C1006.04 28.827 1007.03 28.481 1007.59 27.7796C1008.15 27.0782 1008.42 25.6239 1008.42 23.4122V18.5118C1008.42 16.473 1008.11 15.1482 1007.49 14.5372C1006.85 13.9246 1005.51 13.602 1003.49 13.602" fill="#848484"/>
<path d="M1024.52 3.36621H1035.51C1042.84 3.36621 1047.8 3.64989 1050.4 4.21725C1052.99 4.78725 1055.27 6.34113 1056.74 8.55189C1058.37 10.8899 1059.2 14.5933 1059.2 19.6901C1059.2 24.338 1058.61 27.471 1057.46 29.0655C1056.31 30.66 1054.03 31.6326 1050.63 31.9552C1053.7 32.7081 1055.77 33.7368 1056.83 35.0133C1057.74 36.0231 1058.42 37.2225 1058.81 38.525C1059.07 39.5911 1059.2 42.5308 1059.2 47.3439V63.0833H1044.78V43.2571C1044.78 40.0587 1044.53 38.0808 1044.03 37.3186C1043.53 36.5564 1042.2 36.1823 1040.06 36.1823V63.0833H1024.52V3.36621ZM1040.06 13.6113V26.9052C1041.81 26.9052 1043.03 26.6667 1043.73 26.1851C1044.44 25.7034 1044.78 24.151 1044.78 21.5091V18.2359C1044.78 16.3655 1044.44 15.103 1043.76 14.4951C1043.08 13.8872 1041.85 13.602 1040.06 13.602" fill="#848484"/>
<path d="M1098.87 38.3425C1098.87 44.3419 1098.72 48.6017 1098.45 51.094C1098.17 53.6306 1097.21 56.0458 1095.69 58.089C1094.16 60.1322 1092.11 61.729 1089.75 62.7138C1086.95 63.8728 1083.93 64.435 1080.9 64.3645C1077.95 64.4116 1075.02 63.881 1072.27 62.8027C1069.9 61.8477 1067.82 60.2742 1066.25 58.2451C1064.68 56.2161 1063.69 53.8053 1063.37 51.2623C1063.07 48.809 1062.92 44.5024 1062.93 38.3425V28.1162C1062.93 22.1028 1063.07 17.8508 1063.35 15.3601C1063.62 12.8219 1064.58 10.4045 1066.11 8.36052C1067.64 6.31651 1069.69 4.72084 1072.05 3.7402C1074.85 2.58494 1077.86 2.02141 1080.9 2.08491C1083.85 2.04031 1086.78 2.57406 1089.52 3.65603C1091.9 4.61565 1093.97 6.19096 1095.53 8.21952C1097.1 10.2481 1098.09 12.6565 1098.41 15.1964C1098.7 17.6591 1098.86 21.9657 1098.88 28.1162L1098.87 38.3425ZM1083.34 18.68C1083.34 15.8931 1083.18 14.1131 1082.87 13.34C1082.72 12.9656 1082.45 12.6494 1082.11 12.4388C1081.77 12.2281 1081.36 12.1342 1080.96 12.171C1080.6 12.154 1080.23 12.2311 1079.91 12.3948C1079.58 12.5585 1079.3 12.8035 1079.09 13.1062C1078.65 13.7375 1078.44 15.5938 1078.44 18.6753V46.6237C1078.44 50.1089 1078.59 52.2521 1078.87 53.0532C1079.15 53.8715 1079.81 54.2783 1080.85 54.2783C1081.3 54.3231 1081.75 54.2067 1082.12 53.9499C1082.49 53.6932 1082.77 53.3125 1082.88 52.8755C1083.18 51.9403 1083.34 49.7115 1083.35 46.1889L1083.34 18.68Z" fill="#848484"/>
<path d="M972.849 58.4073C986.755 58.4073 998.029 47.1338 998.029 33.2271C998.029 19.3204 986.755 8.04688 972.849 8.04688C958.942 8.04688 947.668 19.3204 947.668 33.2271C947.668 47.1338 958.942 58.4073 972.849 58.4073Z" fill="white"/>
<path d="M991.398 19.5171C988.308 15.3365 983.896 12.3226 978.877 10.964C973.859 9.60553 968.529 9.98212 963.752 12.0328C958.974 14.0834 955.03 17.6878 952.558 22.2614C950.086 26.835 949.231 32.1096 950.133 37.2298C952.686 35.3003 955.429 33.6363 958.32 32.2639C963.84 29.629 969.825 28.1118 975.933 27.7997C982.041 27.4875 988.15 28.3865 993.909 30.4449C986.465 28.8532 978.734 29.2434 971.488 31.5765C971.735 34.7266 973.108 37.6824 975.356 39.903C977.604 42.1235 980.577 43.4603 983.73 43.6686C980.557 43.8948 977.573 45.2629 975.331 47.5195C973.089 49.7762 971.74 52.7687 971.535 55.9431H971.479C971.261 52.7685 969.899 49.7806 967.646 47.5331C965.394 45.2856 962.403 43.9309 959.228 43.72C962.375 43.4989 965.338 42.1528 967.576 39.9275C969.813 37.7022 971.175 34.7464 971.413 31.5999C969.603 32.1883 967.832 32.8911 966.111 33.7041C960.912 36.163 956.251 39.6257 952.396 43.8931C952.952 44.9529 953.589 45.9689 954.299 46.9325C956.099 49.3687 958.362 51.4266 960.957 52.9886C963.552 54.5505 966.43 55.586 969.426 56.0358C972.421 56.4857 975.476 56.3411 978.416 55.6103C981.355 54.8795 984.122 53.5769 986.559 51.7768C988.995 49.9767 991.053 47.7143 992.615 45.1189C994.177 42.5235 995.212 39.6458 995.662 36.6502C996.112 33.6546 995.967 30.5998 995.237 27.6601C994.506 24.7204 993.203 21.9534 991.403 19.5171H991.398ZM981.032 22.4957C979.779 23.8357 979.032 25.5699 978.918 27.4008H978.895C978.762 25.4832 977.939 23.6785 976.578 22.321C975.217 20.9635 973.411 20.1451 971.493 20.0174C973.412 19.8822 975.216 19.0556 976.572 17.691C977.928 16.3265 978.744 14.5164 978.867 12.5966H978.895C979.026 14.5151 979.849 16.3209 981.21 17.6794C982.571 19.0378 984.378 19.8569 986.297 19.9847C984.285 20.1182 982.401 21.0167 981.032 22.4957ZM988.513 37.3186C987.885 37.9866 987.511 38.8536 987.457 39.7688C987.391 38.8105 986.98 37.9084 986.3 37.23C985.619 36.5516 984.716 36.1428 983.758 36.0795C984.717 36.0133 985.62 35.6007 986.298 34.9186C986.976 34.2364 987.382 33.3312 987.442 32.3714C987.509 33.3299 987.92 34.232 988.6 34.911C989.28 35.5899 990.183 36 991.141 36.0654C990.134 36.1306 989.19 36.5791 988.504 37.3186H988.513Z" fill="#848484"/>
<path d="M1101.34 4.73625H1099.79V3.8291H1103.95V4.73625H1102.41V8.94464H1101.34V4.73625Z" fill="#848484"/>
<path d="M1105.53 8.94464H1104.53V3.8291H1106.08L1107.02 7.88319L1107.95 3.8291H1109.5V8.94464H1108.5V4.64272L1107.56 8.94464H1106.51L1105.58 4.5492L1105.53 8.94464Z" fill="#848484"/>
<defs>
<clipPath id="clip0_0_230">
<rect width="232" height="63" fill="white" transform="translate(0.499939 1.08008)"/>
</clipPath>
</defs>
</svg>
