<svg width="56" height="56" viewBox="0 0 56 56" fill="none" xmlns="http://www.w3.org/2000/svg">
<g clip-path="url(#clip0_1_736)">
<path d="M27.917 55.3802C35.1885 55.3802 42.1621 52.4916 47.3038 47.3499C52.4455 42.2082 55.334 35.2346 55.334 27.9632C55.334 20.6917 52.4455 13.7181 47.3038 8.5764C42.1621 3.43471 35.1885 0.546143 27.917 0.546143C20.6456 0.546143 13.672 3.43471 8.53026 8.5764C3.38857 13.7181 0.5 20.6917 0.5 27.9632C0.5 35.2346 3.38857 42.2082 8.53026 47.3499C13.672 52.4916 20.6456 55.3802 27.917 55.3802Z" fill="white"/>
<g clip-path="url(#clip1_1_736)">
<path d="M37.1 10.9631H18.9C18.5136 10.9631 18.2 11.2767 18.2 11.6631V14.3091C18.2 15.2569 18.8825 16.4707 19.7869 17.1315C19.8058 17.1455 19.8261 17.1588 19.8457 17.1707L23.8644 19.5227C24.248 19.004 24.8577 18.6631 25.55 18.6631H30.45C31.1423 18.6631 31.752 19.004 32.1349 19.522L36.1529 17.17C36.1732 17.1581 36.1935 17.1455 36.2124 17.1315C37.1175 16.4707 37.8 15.2576 37.8 14.3091V11.6631C37.8 11.2767 37.4871 10.9631 37.1 10.9631Z" fill="#556C26"/>
<path d="M29.225 23.5631H26.775C25.7131 23.5631 24.85 22.6209 24.85 21.4631V20.7631C24.85 20.3767 25.1636 20.0631 25.55 20.0631H30.45C30.8371 20.0631 31.15 20.3767 31.15 20.7631V21.4631C31.15 22.6209 30.2869 23.5631 29.225 23.5631Z" fill="#556C26"/>
<path d="M39.8538 32.0338C39.7404 31.6929 39.4394 31.443 39.0782 31.3919L32.0187 30.3839L29.2992 24.9631H26.7001L23.9806 30.3832L16.9218 31.3912C16.5599 31.4423 16.2589 31.6929 16.1462 32.0331C16.0335 32.3768 16.128 32.7527 16.3898 33.004L21.497 37.8998L20.2909 44.8137C20.2293 45.1679 20.3777 45.5284 20.6731 45.7384C20.9699 45.9505 21.3619 45.9778 21.686 45.8112L28 42.5478L34.3133 45.8119C34.4526 45.8847 34.6087 45.919 34.7606 45.919C34.9601 45.919 35.1582 45.8581 35.3262 45.7377C35.6223 45.5277 35.7693 45.1672 35.7084 44.8137L34.503 37.8991L39.6102 33.0033C39.872 32.7534 39.9665 32.3775 39.8538 32.0338Z" fill="#738942"/>
</g>
</g>
<defs>
<clipPath id="clip0_1_736">
<rect width="54.834" height="54.834" fill="white" transform="translate(0.5 0.546143)"/>
</clipPath>
<clipPath id="clip1_1_736">
<rect width="35" height="35" fill="white" transform="translate(10.5 10.9631)"/>
</clipPath>
</defs>
</svg>
