<svg width="56" height="56" viewBox="0 0 56 56" fill="none" xmlns="http://www.w3.org/2000/svg">
<g clip-path="url(#clip0_1_670)">
<path d="M27.917 55.3802C35.1885 55.3802 42.1621 52.4916 47.3038 47.3499C52.4455 42.2082 55.334 35.2346 55.334 27.9632C55.334 20.6917 52.4455 13.7181 47.3038 8.5764C42.1621 3.43471 35.1885 0.546143 27.917 0.546143C20.6456 0.546143 13.672 3.43471 8.53026 8.5764C3.38857 13.7181 0.5 20.6917 0.5 27.9632C0.5 35.2346 3.38857 42.2082 8.53026 47.3499C13.672 52.4916 20.6456 55.3802 27.917 55.3802Z" fill="white"/>
<path d="M33.3452 19.6461H22.6548C20.9678 19.6461 19.6 21.0139 19.6 22.7009V33.392C19.6 35.0783 20.9678 36.4461 22.6548 36.4461H33.3459C35.0322 36.4461 36.4 35.0783 36.4 33.3913V22.7009C36.4 21.0139 35.0322 19.6461 33.3452 19.6461Z" fill="#738942"/>
<path d="M35.7 14.0461H20.3C16.8203 14.0461 14 16.8664 14 20.3461V35.7461C14 39.2258 16.8203 42.0461 20.3 42.0461H35.7C39.1797 42.0461 42 39.2258 42 35.7461V20.3461C42 16.8664 39.1797 14.0461 35.7 14.0461ZM38.5 33.3913C38.5 36.234 36.1879 38.5461 33.3452 38.5461H22.6548C19.8121 38.5461 17.5 36.234 17.5 33.3913V22.7009C17.5 19.8582 19.8121 17.5461 22.6548 17.5461H33.3459C36.1879 17.5461 38.5 19.8582 38.5 22.7009V33.3913Z" fill="#556C26"/>
</g>
<defs>
<clipPath id="clip0_1_670">
<rect width="54.834" height="54.834" fill="white" transform="translate(0.5 0.546143)"/>
</clipPath>
</defs>
</svg>
