<svg width="56" height="55" viewBox="0 0 56 55" fill="none" xmlns="http://www.w3.org/2000/svg">
<g clip-path="url(#clip0_1_693)">
<path d="M27.917 54.9632C35.1885 54.9632 42.1621 52.0746 47.3038 46.9329C52.4455 41.7912 55.334 34.8176 55.334 27.5461C55.334 20.2747 52.4455 13.3011 47.3038 8.15938C42.1621 3.01769 35.1885 0.12912 27.917 0.12912C20.6456 0.12912 13.672 3.01769 8.53026 8.15938C3.38857 13.3011 0.5 20.2747 0.5 27.5461C0.5 34.8176 3.38857 41.7912 8.53026 46.9329C13.672 52.0746 20.6456 54.9632 27.917 54.9632Z" fill="white"/>
<g clip-path="url(#clip1_1_693)">
<path d="M34.3 38.9461H32.2V37.5461H23.8V38.9461H21.7C20.5422 38.9461 19.6 39.8883 19.6 41.0461V41.7461H36.4V41.0461C36.4 39.8883 35.4578 38.9461 34.3 38.9461Z" fill="#738942"/>
<path d="M45.5 18.6461V15.7061L43.26 15.3561C43.19 15.1461 43.12 14.8661 42.98 14.6561L44.24 12.7661L42.21 10.7361L40.39 12.0661C40.18 11.9261 39.9 11.8561 39.69 11.7861L39.34 9.54614H36.4L35.98 11.7861C35.77 11.8561 35.49 11.9261 35.28 12.0661L33.39 10.7361L31.29 12.8361L32.55 14.5861C32.48 14.8661 32.34 15.0761 32.27 15.3561L30.1 15.7061V18.6461L32.27 18.9961C32.34 19.2061 32.41 19.4861 32.55 19.6961L31.29 21.5861L33.39 23.6861L35.28 22.4261C35.56 22.5661 35.77 22.6361 36.05 22.7061L36.4 24.9461H39.27L39.69 22.7761C39.9 22.7061 40.11 22.6361 40.39 22.4961L42.28 23.7561L44.38 21.6561L43.05 19.8361C43.19 19.5561 43.26 19.2761 43.33 19.0661L45.5 18.6461ZM37.8 19.3461C36.645 19.3461 35.7 18.4011 35.7 17.2461C35.7 16.0911 36.645 15.1461 37.8 15.1461C38.955 15.1461 39.9 15.9861 39.9 17.2461C39.9 18.4011 38.955 19.3461 37.8 19.3461Z" fill="#556C26"/>
<path d="M42.7 24.9062V30.5461H13.3V14.4461H29.1438C29.3013 13.9596 29.4994 13.4927 29.7325 13.0461H13.3C12.5279 13.0461 11.9 13.674 11.9 14.4461V34.7461C11.9 35.5182 12.5279 36.1461 13.3 36.1461H42.7C43.4721 36.1461 44.1 35.5182 44.1 34.7461V23.803C43.6716 24.2153 43.2026 24.5835 42.7 24.9062ZM40.6 34.0461H39.2V32.6461H40.6V34.0461Z" fill="#738942"/>
</g>
</g>
<defs>
<clipPath id="clip0_1_693">
<rect width="54.834" height="54.834" fill="white" transform="translate(0.5 0.12912)"/>
</clipPath>
<clipPath id="clip1_1_693">
<rect width="35" height="35" fill="white" transform="translate(10.5 9.54614)"/>
</clipPath>
</defs>
</svg>
