<svg width="56" height="56" viewBox="0 0 56 56" fill="none" xmlns="http://www.w3.org/2000/svg">
<g clip-path="url(#clip0_1_747)">
<path d="M27.917 55.3802C35.1885 55.3802 42.1621 52.4916 47.3038 47.3499C52.4455 42.2082 55.334 35.2346 55.334 27.9632C55.334 20.6917 52.4455 13.7181 47.3038 8.5764C42.1621 3.43471 35.1885 0.546143 27.917 0.546143C20.6456 0.546143 13.672 3.43471 8.53026 8.5764C3.38857 13.7181 0.5 20.6917 0.5 27.9632C0.5 35.2346 3.38857 42.2082 8.53026 47.3499C13.672 52.4916 20.6456 55.3802 27.917 55.3802Z" fill="white"/>
<path d="M39.2 19.6461H42.7V36.4461H39.2" stroke="#738942" stroke-width="2.8" stroke-miterlimit="10"/>
<path d="M16.8 36.4461H13.3V19.6461H16.8" stroke="#738942" stroke-width="2.8" stroke-miterlimit="10"/>
<path d="M18.2 23.8461H37.8" stroke="#556C26" stroke-width="2.8" stroke-miterlimit="10" stroke-linejoin="round"/>
<path d="M18.2 28.0461H35" stroke="#556C26" stroke-width="2.8" stroke-miterlimit="10" stroke-linejoin="round"/>
<path d="M18.2 32.2462H37.8" stroke="#556C26" stroke-width="2.8" stroke-miterlimit="10" stroke-linejoin="round"/>
</g>
<defs>
<clipPath id="clip0_1_747">
<rect width="54.834" height="54.834" fill="white" transform="translate(0.5 0.546143)"/>
</clipPath>
</defs>
</svg>
