<svg width="56" height="56" viewBox="0 0 56 56" fill="none" xmlns="http://www.w3.org/2000/svg">
<g clip-path="url(#clip0_1_705)">
<path d="M27.917 55.3802C35.1885 55.3802 42.1621 52.4916 47.3038 47.3499C52.4455 42.2082 55.334 35.2346 55.334 27.9632C55.334 20.6917 52.4455 13.7181 47.3038 8.5764C42.1621 3.43471 35.1885 0.546143 27.917 0.546143C20.6456 0.546143 13.672 3.43471 8.53026 8.5764C3.38857 13.7181 0.5 20.6917 0.5 27.9632C0.5 35.2346 3.38857 42.2082 8.53026 47.3499C13.672 52.4916 20.6456 55.3802 27.917 55.3802Z" fill="white"/>
<g clip-path="url(#clip1_1_705)">
<path d="M28 10.5958C22.624 10.5958 18.2497 14.9701 18.2497 20.3461C18.2497 28.9176 27.1075 40.5509 27.4841 41.0416C27.6073 41.2019 27.7977 41.2957 27.9993 41.2957C27.9993 41.2957 28.0007 41.2957 28.0021 41.2957C28.2051 41.295 28.3962 41.1991 28.518 41.0374C28.8953 40.539 37.7503 28.7202 37.7503 20.3461C37.7503 14.9701 33.3767 10.5958 28 10.5958ZM28 25.2461C25.6809 25.2461 23.8 23.3652 23.8 21.0461C23.8 18.727 25.6809 16.8461 28 16.8461C30.3191 16.8461 32.2 18.727 32.2 21.0461C32.2 23.3652 30.3191 25.2461 28 25.2461Z" fill="#738942"/>
<path d="M34.4785 34.3923C32.3085 38.2829 30.1028 41.2621 29.6366 41.8795C29.2537 42.3891 28.6447 42.6936 28 42.6957C27.3665 42.6957 26.7582 42.3954 26.3746 41.8942C26.1814 41.6429 23.828 38.5517 21.5089 34.3965C15.9838 35.1623 11.4478 36.9165 11.2224 39.559C11.2077 39.6164 11.2 39.6752 11.2 39.7361C11.2 43.5105 19.8555 45.5461 28 45.5461C35.994 45.5461 44.4808 43.584 44.7902 39.9433C44.8049 39.8873 44.8133 39.8285 44.8133 39.7669C44.814 37.0026 40.1653 35.1763 34.4785 34.3923Z" fill="#556C26"/>
</g>
</g>
<defs>
<clipPath id="clip0_1_705">
<rect width="54.834" height="54.834" fill="white" transform="translate(0.5 0.546143)"/>
</clipPath>
<clipPath id="clip1_1_705">
<rect width="35" height="35" fill="white" transform="translate(10.5 10.5461)"/>
</clipPath>
</defs>
</svg>
