<svg width="56" height="56" viewBox="0 0 56 56" fill="none" xmlns="http://www.w3.org/2000/svg">
<g clip-path="url(#clip0_1_715)">
<path d="M27.917 55.3802C35.1885 55.3802 42.1621 52.4916 47.3038 47.3499C52.4455 42.2082 55.334 35.2346 55.334 27.9632C55.334 20.6917 52.4455 13.7181 47.3038 8.5764C42.1621 3.43471 35.1885 0.546143 27.917 0.546143C20.6456 0.546143 13.672 3.43471 8.53026 8.5764C3.38857 13.7181 0.5 20.6917 0.5 27.9632C0.5 35.2346 3.38857 42.2082 8.53026 47.3499C13.672 52.4916 20.6456 55.3802 27.917 55.3802Z" fill="white"/>
<path d="M44.1 16.8461V30.8461H36.4V32.2461C36.4 34.9481 37.9701 37.1461 39.9 37.1461H40.6V42.0461H39.9C34.496 42.0461 30.1 37.6501 30.1 32.2461V16.8461H44.1Z" fill="#738942"/>
<path d="M25.9 16.8461V30.8461H18.2V32.2461C18.2 34.9481 19.7701 37.1461 21.7 37.1461H22.4V42.0461H21.7C16.296 42.0461 11.9 37.6501 11.9 32.2461V16.8461H25.9Z" fill="#556C26"/>
</g>
<defs>
<clipPath id="clip0_1_715">
<rect width="54.834" height="54.834" fill="white" transform="translate(0.5 0.546143)"/>
</clipPath>
</defs>
</svg>
