<svg width="56" height="56" viewBox="0 0 56 56" fill="none" xmlns="http://www.w3.org/2000/svg">
<g clip-path="url(#clip0_1_725)">
<path d="M27.917 55.3802C35.1885 55.3802 42.1621 52.4916 47.3038 47.3499C52.4455 42.2082 55.334 35.2346 55.334 27.9632C55.334 20.6917 52.4455 13.7181 47.3038 8.5764C42.1621 3.43471 35.1885 0.546143 27.917 0.546143C20.6456 0.546143 13.672 3.43471 8.53026 8.5764C3.38857 13.7181 0.5 20.6917 0.5 27.9632C0.5 35.2346 3.38857 42.2082 8.53026 47.3499C13.672 52.4916 20.6456 55.3802 27.917 55.3802Z" fill="white"/>
<path d="M23.1 30.1461L27.44 34.0661L33.6 24.5461" stroke="#556C26" stroke-width="2" stroke-miterlimit="10" stroke-linecap="square"/>
<path d="M32.55 17.5462H23.45C22.8704 17.5462 22.4 17.0758 22.4 16.4962V12.2962C22.4 11.7166 22.8704 11.2462 23.45 11.2462H32.55C33.1296 11.2462 33.6 11.7166 33.6 12.2962V16.4962C33.6 17.0758 33.1296 17.5462 32.55 17.5462Z" fill="#556C26"/>
<path d="M39.2 12.6461H35V16.1461H37.8V40.6461H18.2V16.1461H21V12.6461H16.8C15.6422 12.6461 14.7 13.5883 14.7 14.7461V42.0461C14.7 43.2039 15.6422 44.1461 16.8 44.1461H39.2C40.3578 44.1461 41.3 43.2039 41.3 42.0461V14.7461C41.3 13.5883 40.3578 12.6461 39.2 12.6461Z" fill="#738942"/>
</g>
<defs>
<clipPath id="clip0_1_725">
<rect width="54.834" height="54.834" fill="white" transform="translate(0.5 0.546143)"/>
</clipPath>
</defs>
</svg>
