<svg width="56" height="56" viewBox="0 0 56 56" fill="none" xmlns="http://www.w3.org/2000/svg">
<g clip-path="url(#clip0_1_760)">
<path d="M27.917 55.3802C35.1885 55.3802 42.1621 52.4916 47.3038 47.3499C52.4455 42.2082 55.334 35.2346 55.334 27.9632C55.334 20.6917 52.4455 13.7181 47.3038 8.5764C42.1621 3.43471 35.1885 0.546143 27.917 0.546143C20.6456 0.546143 13.672 3.43471 8.53026 8.5764C3.38857 13.7181 0.5 20.6917 0.5 27.9632C0.5 35.2346 3.38857 42.2082 8.53026 47.3499C13.672 52.4916 20.6456 55.3802 27.917 55.3802Z" fill="white"/>
<path d="M16.7286 39.5276L19.7687 36.6198C17.5126 34.4526 16.1 31.4139 16.1 28.0462C16.1 21.4844 21.4382 16.1462 28 16.1462C34.5618 16.1462 39.9 21.4844 39.9 28.0462C39.9 31.4139 38.4874 34.4526 36.2313 36.6198L39.2714 39.5276C42.2485 36.6044 44.1 32.5381 44.1 28.0462C44.1 19.1688 36.8781 11.9462 28 11.9462C19.1219 11.9462 11.9 19.1688 11.9 28.0462C11.9 32.5381 13.7515 36.6044 16.7286 39.5276Z" fill="#738942"/>
<path d="M28 32.2462L24.5 28.7462L33.0624 21.2086L35.5376 23.6838L28 32.2462Z" fill="#556C26"/>
</g>
<defs>
<clipPath id="clip0_1_760">
<rect width="54.834" height="54.834" fill="white" transform="translate(0.5 0.546143)"/>
</clipPath>
</defs>
</svg>
