<svg width="56" height="55" viewBox="0 0 56 55" fill="none" xmlns="http://www.w3.org/2000/svg">
<g clip-path="url(#clip0_1_660)">
<path d="M27.917 54.9632C35.1885 54.9632 42.1621 52.0746 47.3038 46.9329C52.4455 41.7912 55.334 34.8176 55.334 27.5461C55.334 20.2747 52.4455 13.3011 47.3038 8.15938C42.1621 3.01769 35.1885 0.12912 27.917 0.12912C20.6456 0.12912 13.672 3.01769 8.53026 8.15938C3.38857 13.3011 0.5 20.2747 0.5 27.5461C0.5 34.8176 3.38857 41.7912 8.53026 46.9329C13.672 52.0746 20.6456 54.9632 27.917 54.9632Z" fill="white"/>
<path d="M23.8 11.9461C16.8525 11.9461 11.2 16.9707 11.2 23.1461C11.2 26.0973 12.4691 28.856 14.7847 30.9602C14.0952 33.0728 11.6102 34.4567 11.5843 34.4721C11.3981 34.5743 11.2679 34.7549 11.2308 34.9635C11.1937 35.1728 11.2532 35.387 11.3925 35.5466C11.5241 35.6971 12.2787 36.4461 14.2296 36.4461C18.5976 36.4461 20.741 34.7325 21.3563 34.1263C22.1809 34.2726 23.0013 34.3461 23.8 34.3461C30.7475 34.3461 36.4 29.3215 36.4 23.1461C36.4 16.9707 30.7475 11.9461 23.8 11.9461ZM24.5 25.9461H18.2C17.8129 25.9461 17.5 25.6332 17.5 25.2461C17.5 24.859 17.8129 24.5461 18.2 24.5461H24.5C24.8871 24.5461 25.2 24.859 25.2 25.2461C25.2 25.6332 24.8871 25.9461 24.5 25.9461ZM29.4 25.9461H27.3C26.9129 25.9461 26.6 25.6332 26.6 25.2461C26.6 24.859 26.9129 24.5461 27.3 24.5461H29.4C29.7871 24.5461 30.1 24.859 30.1 25.2461C30.1 25.6332 29.7871 25.9461 29.4 25.9461ZM29.4 21.7461H18.2C17.8129 21.7461 17.5 21.4332 17.5 21.0461C17.5 20.659 17.8129 20.3461 18.2 20.3461H29.4C29.7871 20.3461 30.1 20.659 30.1 21.0461C30.1 21.4332 29.7871 21.7461 29.4 21.7461Z" fill="#738942"/>
<path d="M44.4157 42.1728C44.3891 42.1581 41.8915 40.7651 41.2139 38.6616C43.5302 36.5567 44.8 33.798 44.8 30.8461C44.8 26.3661 41.8187 22.5028 37.5326 20.7129C37.7048 21.5011 37.8 22.3138 37.8 23.1461C37.8 30.0936 31.5196 35.7461 23.8 35.7461C23.1336 35.7461 22.4546 35.6999 21.7707 35.6075C21.5761 35.758 21.3353 35.9211 21.0721 36.0863C23.191 39.6276 27.3819 42.0461 32.2 42.0461C32.9987 42.0461 33.8198 41.9726 34.6451 41.8263C35.3311 42.4899 37.4738 44.1461 41.7697 44.1461C43.7213 44.1461 44.4752 43.3978 44.6061 43.2473C44.7461 43.0877 44.8049 42.8735 44.7678 42.6642C44.7314 42.4556 44.6019 42.2743 44.4157 42.1728Z" fill="#556C26"/>
</g>
<defs>
<clipPath id="clip0_1_660">
<rect width="54.834" height="54.834" fill="white" transform="translate(0.5 0.12912)"/>
</clipPath>
</defs>
</svg>
