<svg width="56" height="56" viewBox="0 0 56 56" fill="none" xmlns="http://www.w3.org/2000/svg">
<g clip-path="url(#clip0_1_681)">
<path d="M27.917 55.3802C35.1885 55.3802 42.1621 52.4916 47.3038 47.3499C52.4455 42.2082 55.334 35.2346 55.334 27.9632C55.334 20.6917 52.4455 13.7181 47.3038 8.5764C42.1621 3.43471 35.1885 0.546143 27.917 0.546143C20.6456 0.546143 13.672 3.43471 8.53026 8.5764C3.38857 13.7181 0.5 20.6917 0.5 27.9632C0.5 35.2346 3.38857 42.2082 8.53026 47.3499C13.672 52.4916 20.6456 55.3802 27.917 55.3802Z" fill="white"/>
<g clip-path="url(#clip1_1_681)">
<path d="M27.8047 33.7112C27.797 33.6041 27.79 33.4963 27.7914 33.3885L27.3259 32.9223C26.4705 33.0847 25.5234 32.7998 24.9095 32.1859L24.4195 31.6959C23.4416 30.718 23.4038 29.1045 24.2851 28.0615L23.3996 27.176L19.1667 31.4096C18.6816 31.3144 18.193 31.2661 17.71 31.2661C13.7732 31.2661 10.57 34.4693 10.57 38.4061C10.57 42.3429 13.7732 45.5461 17.71 45.5461C21.6475 45.5461 24.85 42.3429 24.85 38.4061C24.85 37.8132 24.7926 37.3162 24.6666 36.8493L27.8047 33.7112ZM20.16 40.7861L16.8 41.6961L14.35 39.2461L15.26 35.9561L18.55 35.0461L21 37.4961L20.16 40.7861Z" fill="#556C26"/>
<path d="M28.0154 24.3319C28.4851 23.9385 29.0997 23.7068 29.75 23.7068C30.4752 23.7068 31.1668 23.9833 31.6498 24.4649L32.1398 24.9556C32.7782 25.594 33.0456 26.5033 32.8776 27.3727L33.3676 27.8634C33.4558 27.8634 33.5391 27.883 33.6259 27.8893L34.3728 27.1424L34.3749 27.141L35.1176 26.3983C36.3699 27.0717 37.569 27.4077 38.6771 27.4077C40.0414 27.4077 41.2678 26.8974 42.2849 25.881C44.1665 23.9994 46.207 19.6209 45.2536 16.7649C45.1773 16.5346 44.9869 16.361 44.7503 16.305C44.513 16.2483 44.2659 16.3197 44.0944 16.4912L40.3844 20.2012C40.1562 20.4273 39.7285 20.414 39.4842 20.2012L35.7742 16.4912C35.5474 16.2637 35.5614 15.836 35.7742 15.591L39.4842 11.881C39.655 11.7102 39.7257 11.4631 39.6718 11.2279C39.6172 10.9927 39.445 10.8023 39.2168 10.7239C36.4161 9.76284 31.9459 11.8411 30.0951 13.6912C28.1848 15.6015 28.0238 18.2293 29.6198 20.9551L27.1292 23.4457L28.0154 24.3319Z" fill="#556C26"/>
<path d="M17.08 15.3761L17.36 13.4861L12.25 10.5461L10.5 12.2961L13.44 17.4061L15.33 17.1261L26.25 28.0461L28 26.2961L17.08 15.3761Z" fill="#738942"/>
<path d="M44.4185 39.2146L35.21 30.0061C34.6871 29.4825 33.9402 29.2158 33.1345 29.2711L32.8167 29.2921L31.276 27.7521L31.4391 27.3272C31.6239 26.8491 31.5105 26.3066 31.15 25.9461L30.66 25.4554C30.2169 25.013 29.2831 25.013 28.84 25.4554L25.4093 28.8854C24.9256 29.3698 24.9256 30.2203 25.4093 30.7054L25.8993 31.1954C26.243 31.5384 26.8261 31.6588 27.2804 31.4852L27.7053 31.3214L29.239 32.8558L29.2033 33.189C29.1242 33.9317 29.4063 34.7038 29.9586 35.2554L39.1671 44.4639C39.8783 45.1751 40.8107 45.5664 41.7921 45.5664C42.7735 45.5664 43.7101 45.1709 44.429 44.4513C45.8304 42.982 45.8311 40.6272 44.4185 39.2146ZM40.1051 41.141L31.7051 32.741L32.6949 31.7512L41.0949 40.1512L40.1051 41.141Z" fill="#738942"/>
</g>
</g>
<defs>
<clipPath id="clip0_1_681">
<rect width="54.834" height="54.834" fill="white" transform="translate(0.5 0.546143)"/>
</clipPath>
<clipPath id="clip1_1_681">
<rect width="35" height="35" fill="white" transform="translate(10.5 10.5461)"/>
</clipPath>
</defs>
</svg>
