<svg width="56" height="56" viewBox="0 0 56 56" fill="none" xmlns="http://www.w3.org/2000/svg">
<g clip-path="url(#clip0_1_646)">
<path d="M27.917 55.3802C35.1885 55.3802 42.1621 52.4916 47.3038 47.3499C52.4455 42.2082 55.334 35.2346 55.334 27.9632C55.334 20.6917 52.4455 13.7181 47.3038 8.5764C42.1621 3.43471 35.1885 0.546143 27.917 0.546143C20.6456 0.546143 13.672 3.43471 8.53026 8.5764C3.38857 13.7181 0.5 20.6917 0.5 27.9632C0.5 35.2346 3.38857 42.2082 8.53026 47.3499C13.672 52.4916 20.6456 55.3802 27.917 55.3802Z" fill="white"/>
<path d="M30.24 37.7061C30.1 37.5661 29.89 37.4961 29.75 37.4961C29.54 37.4961 29.4 37.5661 29.26 37.7061L26.53 40.4361C26.25 40.7161 26.25 41.1361 26.53 41.4161L27.65 42.5361C27.79 42.6761 28 42.7461 28.14 42.7461C28.28 42.7461 28.49 42.6761 28.63 42.5361L31.36 39.8061C31.64 39.5261 31.64 39.1061 31.36 38.8261L30.24 37.7061Z" fill="#556C26"/>
<path d="M41.65 17.1961C38.5 14.0461 33.74 13.9761 30.45 16.7761C30.38 16.7761 24.43 22.7961 24.43 22.7961C24.08 23.1461 23.87 23.6361 23.87 24.1261C23.87 24.6161 24.08 25.1061 24.43 25.4561C25.13 26.1561 26.32 26.1561 27.02 25.4561L31.71 20.6961C31.71 20.6961 31.85 20.4861 32.2 20.4861C32.48 20.4861 32.69 20.6961 32.69 20.6961L41.44 29.4461L41.72 29.1661C44.94 25.8061 44.94 20.4861 41.65 17.1961Z" fill="#556C26"/>
<path d="M27.09 34.5561C26.95 34.4161 26.81 34.3461 26.6 34.3461C26.39 34.3461 26.25 34.4161 26.11 34.5561L23.38 37.2861C23.1 37.5661 23.1 37.9861 23.38 38.2661L24.5 39.3861C24.64 39.5261 24.85 39.5961 24.99 39.5961C25.13 39.5961 25.34 39.5261 25.48 39.3861L28.21 36.6561C28.49 36.3761 28.49 35.9561 28.21 35.6761L27.09 34.5561Z" fill="#556C26"/>
<path d="M40.04 30.0061L32.13 22.0961L27.93 26.3661C27.3 26.9961 26.53 27.3461 25.62 27.3461C24.71 27.3461 23.94 26.9961 23.31 26.3661C22.68 25.7361 22.33 24.9661 22.33 24.0561C22.33 23.2161 22.68 22.3761 23.31 21.7461L27.02 18.0361L26.11 17.1261C22.82 13.8361 17.5 13.8361 14.21 17.1261C10.92 20.4161 10.92 25.7361 14.21 29.0261L15.61 30.4261C15.82 30.2861 15.96 30.1461 16.1 30.0061L18.83 27.2761C19.25 26.8561 19.74 26.6461 20.3 26.6461C20.86 26.6461 21.42 26.8561 21.77 27.2761L22.89 28.3961C23.31 28.8161 23.52 29.3061 23.52 29.8661C24.08 29.8661 24.57 30.0761 24.99 30.4961L26.11 31.6161C26.53 32.0361 26.74 32.5261 26.74 33.0861C27.3 33.0861 27.79 33.2961 28.21 33.7161L29.33 34.8361C29.75 35.2561 29.96 35.7461 29.96 36.3061C30.52 36.3061 31.01 36.5161 31.43 36.9361L32.55 38.0561C32.69 38.1961 32.83 38.3361 32.9 38.5461L33.95 37.4961C34.09 37.3561 34.16 37.2161 34.16 37.0061C34.16 36.7961 34.09 36.6561 33.95 36.5161L29.47 32.0361C29.19 31.7561 29.19 31.3361 29.47 31.0561C29.75 30.7761 30.17 30.7761 30.45 31.0561L34.93 35.5361C35.21 35.8161 35.63 35.8161 35.91 35.5361L37.03 34.4161C37.17 34.2761 37.24 34.1361 37.24 33.9261C37.24 33.7161 37.17 33.5761 37.03 33.4361L32.55 28.9561C32.27 28.6761 32.27 28.2561 32.55 27.9761C32.83 27.6961 33.25 27.6961 33.53 27.9761L35.49 29.9361L38.08 32.3861C38.36 32.6661 38.78 32.6661 39.06 32.3861L40.18 31.2661C40.32 31.1261 40.39 30.9861 40.39 30.7761C40.25 30.2861 40.18 30.1461 40.04 30.0061Z" fill="#738942"/>
<path d="M20.79 28.2561C20.65 28.1161 20.51 28.0461 20.3 28.0461C20.09 28.0461 19.95 28.1161 19.81 28.2561L17.08 30.9861C16.8 31.2661 16.8 31.6861 17.08 31.9661L18.2 33.0861C18.34 33.2261 18.55 33.2961 18.69 33.2961C18.9 33.2961 19.04 33.2261 19.18 33.0861L21.91 30.3561C22.19 30.0761 22.19 29.6561 21.91 29.3761L20.79 28.2561Z" fill="#556C26"/>
<path d="M23.94 31.4061C23.8 31.2661 23.59 31.1961 23.45 31.1961C23.24 31.1961 23.1 31.2661 22.96 31.4061L20.23 34.1361C19.95 34.4161 19.95 34.8361 20.23 35.1161L21.35 36.2361C21.49 36.3761 21.7 36.4461 21.84 36.4461C21.98 36.4461 22.19 36.3761 22.33 36.2361L25.06 33.5061C25.34 33.2261 25.34 32.8061 25.06 32.5261L23.94 31.4061Z" fill="#556C26"/>
</g>
<defs>
<clipPath id="clip0_1_646">
<rect width="54.834" height="54.834" fill="white" transform="translate(0.5 0.546143)"/>
</clipPath>
</defs>
</svg>
