<svg width="880" height="570" viewBox="0 0 880 570" fill="none" xmlns="http://www.w3.org/2000/svg">
<g clip-path="url(#clip0_533_6499)">
<rect y="0.780029" width="880" height="568.78" rx="8.14815" fill="white"/>
<mask id="mask0_533_6499" style="mask-type:alpha" maskUnits="userSpaceOnUse" x="0" y="-316" width="1936" height="1281">
<rect y="-315.22" width="1936" height="1280" fill="#6A8238"/>
</mask>
<g mask="url(#mask0_533_6499)">
<rect x="-23" y="-145.22" width="1126" height="781" fill="#F8FFE9"/>
<path opacity="0.4" d="M-422.081 520.328C-422.081 520.328 -347.476 215.437 -98.5333 68.9345C150.409 -77.5681 474.946 -10.8656 474.946 -10.8656C474.946 -10.8656 400.342 294.025 151.399 440.528C-94.6322 585.591 -422.081 520.328 -422.081 520.328Z" fill="url(#paint0_linear_533_6499)" fill-opacity="0.6"/>
<path opacity="0.4" d="M-299.341 303.173C-299.341 303.173 -49.6587 230.396 158.597 348.332C366.852 466.269 453.438 726.775 453.438 726.775C453.438 726.775 203.756 799.552 -4.49943 681.616C-210.515 565.172 -299.341 303.173 -299.341 303.173Z" fill="url(#paint1_linear_533_6499)" fill-opacity="0.6"/>
<path opacity="0.2" d="M1396.48 -60.7951C1396.48 -60.7951 1161.79 51.2837 937.248 -31.5357C712.704 -114.355 585.252 -357.494 585.252 -357.494C585.252 -357.494 819.935 -469.572 1044.48 -386.753C1266.57 -305.046 1396.48 -60.7951 1396.48 -60.7951Z" fill="url(#paint2_linear_533_6499)" fill-opacity="0.6"/>
</g>
<path d="M226.939 526H225.159V517.641H231.075V519.207H226.939V520.974H230.987V522.541H226.939V526ZM235.126 526.15C233.284 526.15 231.893 524.91 231.893 522.967C231.893 521.212 233.184 519.796 235.026 519.796C236.831 519.796 238.059 521.15 238.059 523.13V523.481H233.56C233.66 524.245 234.274 524.885 235.302 524.885C235.816 524.885 236.53 524.659 236.919 524.283L237.62 525.311C237.019 525.862 236.066 526.15 235.126 526.15ZM236.518 522.403C236.48 521.827 236.079 521.062 235.026 521.062C234.036 521.062 233.61 521.802 233.535 522.403H236.518ZM240.8 524.057C241.064 524.446 241.653 524.734 242.167 524.734C243.094 524.734 243.708 524.032 243.708 522.98C243.708 521.927 243.094 521.212 242.167 521.212C241.653 521.212 241.064 521.513 240.8 521.914V524.057ZM240.8 526H239.209V517.641H240.8V520.724C241.277 520.11 241.953 519.796 242.668 519.796C244.209 519.796 245.35 520.999 245.35 522.98C245.35 524.997 244.197 526.15 242.668 526.15C241.941 526.15 241.277 525.825 240.8 525.223V526ZM255.85 526H249.558V524.609C252.98 522.077 253.982 521.212 253.982 520.185C253.982 519.458 253.318 519.094 252.629 519.094C251.676 519.094 250.949 519.47 250.385 520.059L249.37 518.881C250.185 517.941 251.426 517.515 252.591 517.515C254.371 517.515 255.787 518.518 255.787 520.185C255.787 521.614 254.609 522.854 252.441 524.433H255.85V526ZM260.369 526.15C257.975 526.15 256.91 523.982 256.91 521.827C256.91 519.671 257.975 517.515 260.369 517.515C262.75 517.515 263.828 519.671 263.828 521.827C263.828 523.982 262.75 526.15 260.369 526.15ZM260.369 524.571C261.56 524.571 262.011 523.368 262.011 521.827C262.011 520.285 261.56 519.094 260.369 519.094C259.166 519.094 258.715 520.285 258.715 521.827C258.715 523.368 259.166 524.571 260.369 524.571ZM271.136 526H264.845V524.609C268.266 522.077 269.269 521.212 269.269 520.185C269.269 519.458 268.605 519.094 267.915 519.094C266.963 519.094 266.236 519.47 265.672 520.059L264.657 518.881C265.471 517.941 266.712 517.515 267.878 517.515C269.657 517.515 271.074 518.518 271.074 520.185C271.074 521.614 269.896 522.854 267.727 524.433H271.136V526ZM278.651 526H272.36V524.609C275.781 522.077 276.784 521.212 276.784 520.185C276.784 519.458 276.119 519.094 275.43 519.094C274.478 519.094 273.751 519.47 273.187 520.059L272.172 518.881C272.986 517.941 274.227 517.515 275.393 517.515C277.172 517.515 278.588 518.518 278.588 520.185C278.588 521.614 277.41 522.854 275.242 524.433H278.651V526Z" fill="#443F34"/>
<path d="M359.441 526.15C356.922 526.15 355.08 524.346 355.08 521.827C355.08 519.308 356.922 517.503 359.441 517.503C361.973 517.503 363.815 519.308 363.815 521.827C363.815 524.346 361.973 526.15 359.441 526.15ZM359.441 524.571C360.983 524.571 361.985 523.381 361.985 521.827C361.985 520.26 360.983 519.082 359.441 519.082C357.9 519.082 356.909 520.26 356.909 521.827C356.909 523.381 357.9 524.571 359.441 524.571ZM367.846 526.15C365.979 526.15 364.638 524.834 364.638 522.967C364.638 521.112 365.979 519.796 367.846 519.796C369.087 519.796 369.839 520.335 370.24 520.887L369.2 521.864C368.911 521.438 368.473 521.212 367.921 521.212C366.956 521.212 366.28 521.914 366.28 522.967C366.28 524.02 366.956 524.734 367.921 524.734C368.473 524.734 368.911 524.484 369.2 524.082L370.24 525.048C369.839 525.611 369.087 526.15 367.846 526.15ZM373.311 526.15C372.195 526.15 371.594 525.574 371.594 524.496V521.338H370.591V519.947H371.594V518.292H373.198V519.947H374.426V521.338H373.198V524.07C373.198 524.446 373.398 524.734 373.749 524.734C373.988 524.734 374.213 524.646 374.301 524.559L374.639 525.762C374.401 525.975 373.975 526.15 373.311 526.15ZM384.813 526H378.521V524.609C381.943 522.077 382.945 521.212 382.945 520.185C382.945 519.458 382.281 519.094 381.592 519.094C380.639 519.094 379.912 519.47 379.348 520.059L378.333 518.881C379.148 517.941 380.389 517.515 381.554 517.515C383.334 517.515 384.75 518.518 384.75 520.185C384.75 521.614 383.572 522.854 381.404 524.433H384.813V526ZM389.332 526.15C386.938 526.15 385.873 523.982 385.873 521.827C385.873 519.671 386.938 517.515 389.332 517.515C391.713 517.515 392.791 519.671 392.791 521.827C392.791 523.982 391.713 526.15 389.332 526.15ZM389.332 524.571C390.523 524.571 390.974 523.368 390.974 521.827C390.974 520.285 390.523 519.094 389.332 519.094C388.129 519.094 387.678 520.285 387.678 521.827C387.678 523.368 388.129 524.571 389.332 524.571ZM400.099 526H393.808V524.609C397.229 522.077 398.232 521.212 398.232 520.185C398.232 519.458 397.568 519.094 396.878 519.094C395.926 519.094 395.199 519.47 394.635 520.059L393.62 518.881C394.434 517.941 395.675 517.515 396.841 517.515C398.62 517.515 400.037 518.518 400.037 520.185C400.037 521.614 398.858 522.854 396.69 524.433H400.099V526ZM407.614 526H401.323V524.609C404.744 522.077 405.747 521.212 405.747 520.185C405.747 519.458 405.082 519.094 404.393 519.094C403.441 519.094 402.714 519.47 402.15 520.059L401.135 518.881C401.949 517.941 403.19 517.515 404.355 517.515C406.135 517.515 407.551 518.518 407.551 520.185C407.551 521.614 406.373 522.854 404.205 524.433H407.614V526Z" fill="#443F34"/>
<path d="M486.024 526H484.244V517.641H490.16V519.207H486.024V520.974H490.072V522.541H486.024V526ZM494.211 526.15C492.369 526.15 490.978 524.91 490.978 522.967C490.978 521.212 492.269 519.796 494.111 519.796C495.916 519.796 497.144 521.15 497.144 523.13V523.481H492.645C492.745 524.245 493.359 524.885 494.387 524.885C494.901 524.885 495.615 524.659 496.004 524.283L496.705 525.311C496.104 525.862 495.151 526.15 494.211 526.15ZM495.603 522.403C495.565 521.827 495.164 521.062 494.111 521.062C493.121 521.062 492.695 521.802 492.62 522.403H495.603ZM499.885 524.057C500.149 524.446 500.738 524.734 501.251 524.734C502.179 524.734 502.793 524.032 502.793 522.98C502.793 521.927 502.179 521.212 501.251 521.212C500.738 521.212 500.149 521.513 499.885 521.914V524.057ZM499.885 526H498.294V517.641H499.885V520.724C500.362 520.11 501.038 519.796 501.753 519.796C503.294 519.796 504.435 520.999 504.435 522.98C504.435 524.997 503.282 526.15 501.753 526.15C501.026 526.15 500.362 525.825 499.885 525.223V526ZM514.935 526H508.643V524.609C512.065 522.077 513.067 521.212 513.067 520.185C513.067 519.458 512.403 519.094 511.714 519.094C510.761 519.094 510.034 519.47 509.47 520.059L508.455 518.881C509.27 517.941 510.511 517.515 511.676 517.515C513.456 517.515 514.872 518.518 514.872 520.185C514.872 521.614 513.694 522.854 511.526 524.433H514.935V526ZM519.454 526.15C517.06 526.15 515.995 523.982 515.995 521.827C515.995 519.671 517.06 517.515 519.454 517.515C521.835 517.515 522.913 519.671 522.913 521.827C522.913 523.982 521.835 526.15 519.454 526.15ZM519.454 524.571C520.645 524.571 521.096 523.368 521.096 521.827C521.096 520.285 520.645 519.094 519.454 519.094C518.251 519.094 517.8 520.285 517.8 521.827C517.8 523.368 518.251 524.571 519.454 524.571ZM530.221 526H523.93V524.609C527.351 522.077 528.354 521.212 528.354 520.185C528.354 519.458 527.69 519.094 527 519.094C526.048 519.094 525.321 519.47 524.757 520.059L523.742 518.881C524.556 517.941 525.797 517.515 526.963 517.515C528.742 517.515 530.159 518.518 530.159 520.185C530.159 521.614 528.981 522.854 526.812 524.433H530.221V526ZM534.402 526.15C532.861 526.15 531.72 525.561 531.106 524.809L532.034 523.619C532.61 524.22 533.525 524.571 534.34 524.571C535.355 524.571 535.919 524.133 535.919 523.506C535.919 522.842 535.405 522.541 534.239 522.541C533.888 522.541 533.324 522.553 533.199 522.566V520.962C533.35 520.974 533.926 520.974 534.239 520.974C535.167 520.974 535.781 520.699 535.781 520.085C535.781 519.42 535.104 519.094 534.227 519.094C533.425 519.094 532.698 519.395 532.109 519.959L531.219 518.844C531.896 518.079 532.949 517.515 534.415 517.515C536.37 517.515 537.573 518.393 537.573 519.784C537.573 520.837 536.671 521.526 535.743 521.689C536.596 521.776 537.698 522.441 537.698 523.694C537.698 525.135 536.408 526.15 534.402 526.15Z" fill="#443F34"/>
<path d="M618.526 526.15C616.007 526.15 614.165 524.346 614.165 521.827C614.165 519.308 616.007 517.503 618.526 517.503C621.058 517.503 622.9 519.308 622.9 521.827C622.9 524.346 621.058 526.15 618.526 526.15ZM618.526 524.571C620.068 524.571 621.07 523.381 621.07 521.827C621.07 520.26 620.068 519.082 618.526 519.082C616.985 519.082 615.995 520.26 615.995 521.827C615.995 523.381 616.985 524.571 618.526 524.571ZM626.931 526.15C625.064 526.15 623.723 524.834 623.723 522.967C623.723 521.112 625.064 519.796 626.931 519.796C628.172 519.796 628.924 520.335 629.325 520.887L628.285 521.864C627.997 521.438 627.558 521.212 627.006 521.212C626.041 521.212 625.365 521.914 625.365 522.967C625.365 524.02 626.041 524.734 627.006 524.734C627.558 524.734 627.997 524.484 628.285 524.082L629.325 525.048C628.924 525.611 628.172 526.15 626.931 526.15ZM632.396 526.15C631.28 526.15 630.679 525.574 630.679 524.496V521.338H629.676V519.947H630.679V518.292H632.283V519.947H633.511V521.338H632.283V524.07C632.283 524.446 632.484 524.734 632.834 524.734C633.073 524.734 633.298 524.646 633.386 524.559L633.724 525.762C633.486 525.975 633.06 526.15 632.396 526.15ZM643.898 526H637.606V524.609C641.028 522.077 642.03 521.212 642.03 520.185C642.03 519.458 641.366 519.094 640.677 519.094C639.724 519.094 638.997 519.47 638.433 520.059L637.418 518.881C638.233 517.941 639.474 517.515 640.639 517.515C642.419 517.515 643.835 518.518 643.835 520.185C643.835 521.614 642.657 522.854 640.489 524.433H643.898V526ZM648.417 526.15C646.023 526.15 644.958 523.982 644.958 521.827C644.958 519.671 646.023 517.515 648.417 517.515C650.798 517.515 651.876 519.671 651.876 521.827C651.876 523.982 650.798 526.15 648.417 526.15ZM648.417 524.571C649.608 524.571 650.059 523.368 650.059 521.827C650.059 520.285 649.608 519.094 648.417 519.094C647.214 519.094 646.763 520.285 646.763 521.827C646.763 523.368 647.214 524.571 648.417 524.571ZM659.184 526H652.893V524.609C656.314 522.077 657.317 521.212 657.317 520.185C657.317 519.458 656.653 519.094 655.963 519.094C655.011 519.094 654.284 519.47 653.72 520.059L652.705 518.881C653.519 517.941 654.76 517.515 655.926 517.515C657.705 517.515 659.122 518.518 659.122 520.185C659.122 521.614 657.944 522.854 655.775 524.433H659.184V526ZM663.365 526.15C661.824 526.15 660.683 525.561 660.069 524.809L660.997 523.619C661.573 524.22 662.488 524.571 663.303 524.571C664.318 524.571 664.882 524.133 664.882 523.506C664.882 522.842 664.368 522.541 663.202 522.541C662.851 522.541 662.287 522.553 662.162 522.566V520.962C662.313 520.974 662.889 520.974 663.202 520.974C664.13 520.974 664.744 520.699 664.744 520.085C664.744 519.42 664.067 519.094 663.19 519.094C662.388 519.094 661.661 519.395 661.072 519.959L660.182 518.844C660.859 518.079 661.912 517.515 663.378 517.515C665.333 517.515 666.536 518.393 666.536 519.784C666.536 520.837 665.634 521.526 664.706 521.689C665.559 521.776 666.661 522.441 666.661 523.694C666.661 525.135 665.371 526.15 663.365 526.15Z" fill="#443F34"/>
<path d="M744.827 526H743.048V517.641H748.963V519.207H744.827V520.974H748.876V522.541H744.827V526ZM753.015 526.15C751.173 526.15 749.782 524.91 749.782 522.967C749.782 521.212 751.072 519.796 752.915 519.796C754.719 519.796 755.948 521.15 755.948 523.13V523.481H751.448C751.549 524.245 752.163 524.885 753.19 524.885C753.704 524.885 754.419 524.659 754.807 524.283L755.509 525.311C754.907 525.862 753.955 526.15 753.015 526.15ZM754.406 522.403C754.369 521.827 753.967 521.062 752.915 521.062C751.925 521.062 751.499 521.802 751.423 522.403H754.406ZM758.689 524.057C758.952 524.446 759.541 524.734 760.055 524.734C760.982 524.734 761.597 524.032 761.597 522.98C761.597 521.927 760.982 521.212 760.055 521.212C759.541 521.212 758.952 521.513 758.689 521.914V524.057ZM758.689 526H757.097V517.641H758.689V520.724C759.165 520.11 759.842 519.796 760.556 519.796C762.098 519.796 763.238 520.999 763.238 522.98C763.238 524.997 762.085 526.15 760.556 526.15C759.829 526.15 759.165 525.825 758.689 525.223V526ZM773.738 526H767.447V524.609C770.868 522.077 771.871 521.212 771.871 520.185C771.871 519.458 771.207 519.094 770.517 519.094C769.565 519.094 768.838 519.47 768.274 520.059L767.259 518.881C768.073 517.941 769.314 517.515 770.48 517.515C772.259 517.515 773.676 518.518 773.676 520.185C773.676 521.614 772.498 522.854 770.329 524.433H773.738V526ZM778.258 526.15C775.864 526.15 774.799 523.982 774.799 521.827C774.799 519.671 775.864 517.515 778.258 517.515C780.639 517.515 781.717 519.671 781.717 521.827C781.717 523.982 780.639 526.15 778.258 526.15ZM778.258 524.571C779.448 524.571 779.9 523.368 779.9 521.827C779.9 520.285 779.448 519.094 778.258 519.094C777.055 519.094 776.603 520.285 776.603 521.827C776.603 523.368 777.055 524.571 778.258 524.571ZM789.025 526H782.733V524.609C786.155 522.077 787.157 521.212 787.157 520.185C787.157 519.458 786.493 519.094 785.804 519.094C784.851 519.094 784.125 519.47 783.561 520.059L782.545 518.881C783.36 517.941 784.601 517.515 785.766 517.515C787.546 517.515 788.962 518.518 788.962 520.185C788.962 521.614 787.784 522.854 785.616 524.433H789.025V526ZM795.75 526H793.97V524.27H789.972V522.867L793.294 517.641H795.75V522.704H796.828V524.27H795.75V526ZM793.97 522.704V519.22L791.714 522.704H793.97Z" fill="#443F34"/>
<path d="M37.8903 351.603L37.8903 353.395L31.0976 353.395L31.0976 355.839L29.531 355.839L29.531 349.172L31.0976 349.172L31.0976 351.603L37.8903 351.603ZM38.0407 346.485C38.0407 348.478 36.5869 349.681 34.8574 349.681C33.1404 349.681 31.6866 348.478 31.6866 346.485C31.6866 344.48 33.1404 343.277 34.8574 343.277C36.5869 343.277 38.0407 344.48 38.0407 346.485ZM36.6245 346.485C36.6245 345.495 35.8099 344.931 34.8574 344.931C33.9175 344.931 33.1028 345.495 33.1028 346.485C33.1028 347.475 33.9175 348.027 34.8574 348.027C35.8099 348.027 36.6245 347.475 36.6245 346.485ZM38.0407 340.066C38.0407 341.181 37.4642 341.783 36.3864 341.783L33.2281 341.783L33.2281 342.785L31.837 342.785L31.837 341.783L30.1827 341.783L30.1827 340.178L31.837 340.178L31.837 338.95L33.2281 338.95L33.2281 340.178L35.9603 340.178C36.3363 340.178 36.6245 339.978 36.6245 339.627C36.6245 339.389 36.5368 339.163 36.4491 339.076L37.6522 338.737C37.8653 338.975 38.0407 339.401 38.0407 340.066ZM37.8903 332.635L37.8903 334.227L37.2637 334.227C37.7525 334.64 38.0407 335.355 38.0407 336.144C38.0407 337.109 37.389 338.25 36.0355 338.25C34.6193 338.25 34.0804 337.109 34.0804 336.144C34.0804 335.342 34.3436 334.628 34.8198 334.227L34.0052 334.227C33.3911 334.227 32.99 334.753 32.99 335.555C32.99 336.207 33.2281 336.809 33.7044 337.322L32.6391 337.924C31.9874 337.185 31.6866 336.232 31.6866 335.28C31.6866 333.901 32.2381 332.635 33.9801 332.635L37.8903 332.635ZM36.9629 335.505C36.9629 334.991 36.7875 334.49 36.4365 334.227L35.6846 334.227C35.3337 334.49 35.1582 334.991 35.1582 335.505C35.1582 336.132 35.484 336.646 36.0731 336.646C36.6371 336.646 36.9629 336.132 36.9629 335.505ZM37.8903 329.465L37.8903 331.056L29.531 331.056L29.531 329.465L37.8903 329.465ZM37.8903 317.875L37.8903 319.917L34.9201 321.559L34.9201 322.863L37.8903 322.863L37.8903 324.642L29.531 324.642L29.531 320.732C29.531 318.99 30.6715 317.925 32.2255 317.925C33.7044 317.925 34.494 318.852 34.707 319.754L37.8903 317.875ZM33.3535 320.995C33.3535 320.281 32.9274 319.742 32.2255 319.742C31.5237 319.742 31.0976 320.281 31.0976 320.995L31.0976 322.863L33.3535 322.863L33.3535 320.995ZM38.0407 314.161C38.0407 316.003 36.8 317.394 34.8574 317.394C33.1028 317.394 31.6866 316.104 31.6866 314.261C31.6866 312.457 33.0402 311.228 35.0203 311.228L35.3712 311.228L35.3712 315.728C36.1357 315.627 36.7749 315.013 36.7749 313.986C36.7749 313.472 36.5493 312.757 36.1733 312.369L37.201 311.667C37.7525 312.269 38.0407 313.221 38.0407 314.161ZM34.2934 312.77C33.7169 312.808 32.9524 313.209 32.9524 314.261C32.9524 315.251 33.6919 315.678 34.2934 315.753L34.2934 312.77ZM37.8903 306.795L37.8903 308.512L31.837 310.943L31.837 309.239L36.048 307.66L31.837 306.081L31.837 304.364L37.8903 306.795ZM31.1853 302.864C31.1853 303.377 30.7592 303.816 30.2328 303.816C29.7064 303.816 29.2929 303.377 29.2929 302.864C29.2929 302.337 29.7064 301.911 30.2328 301.911C30.7592 301.911 31.1853 302.337 31.1853 302.864ZM37.8903 302.062L37.8903 303.653L31.837 303.653L31.837 302.062L37.8903 302.062ZM38.0407 297.638C38.0407 299.481 36.8 300.872 34.8574 300.872C33.1028 300.872 31.6866 299.581 31.6866 297.739C31.6866 295.934 33.0402 294.706 35.0203 294.706L35.3712 294.706L35.3712 299.205C36.1357 299.105 36.7749 298.491 36.7749 297.463C36.7749 296.949 36.5493 296.235 36.1733 295.846L37.201 295.144C37.7525 295.746 38.0407 296.698 38.0407 297.638ZM34.2934 296.247C33.7169 296.285 32.9524 296.686 32.9524 297.739C32.9524 298.729 33.6919 299.155 34.2934 299.23L34.2934 296.247ZM37.8903 286.55L37.8903 288.242L33.7671 289.52L37.8903 290.799L37.8903 292.503L31.837 294.346L31.837 292.691L35.9102 291.563L31.837 290.235L31.837 288.819L35.9102 287.49L31.837 286.362L31.837 284.708L37.8903 286.55ZM38.0407 281.743C38.0407 282.796 37.6898 283.811 37.1008 284.45L35.9854 283.761C36.3989 283.322 36.8125 282.42 36.8125 281.668C36.8125 280.979 36.5368 280.653 36.1608 280.653C35.1582 280.653 35.9728 284.25 33.5916 284.25C32.5764 284.25 31.6866 283.36 31.6866 281.768C31.6866 280.741 32.0375 279.926 32.5138 279.324L33.6041 279.964C33.2156 280.327 32.9023 281.016 32.9023 281.756C32.9023 282.332 33.1655 282.708 33.5039 282.708C34.4062 282.708 33.6543 279.124 36.0981 279.124C37.201 279.124 38.0407 280.064 38.0407 281.743Z" fill="#443F34"/>
<path d="M99.4404 518.167C98.7714 516.669 108.157 518.167 108.157 518.167L118.84 509.931H139.244L146.937 506.187H153.633L167.006 498.699H183.569L193.764 493.458C193.764 493.458 194.433 491.212 200.454 490.463C206.475 489.714 195.102 494.207 206.475 489.714L217.847 485.222L232.564 479.232L239.923 473.991L258.654 468.75H303.883C303.883 468.75 308.826 464.257 316.854 465.006L324.882 465.755L328.895 464.257L337.592 459.765L348.295 456.77L357.661 450.78H408.649C408.649 450.78 415.861 444.041 419.875 443.292L423.888 442.544L430.578 441.046H440.312L455.33 437.302H477.733L492.123 434.307C492.123 434.307 498.813 432.81 506.84 431.312L514.868 429.815H519.751C519.751 429.815 541.626 411.096 540.957 409.599C540.288 408.101 552.999 401.363 552.999 401.363L559.019 396.87L567.716 393.875L581.764 384.142L593.137 373.659L599.826 365.423L605.847 354.192L613.875 347.453C613.875 347.453 617.888 346.704 625.247 337.719L632.606 328.734L636.619 323.493L643.978 318.252C643.978 318.252 651.337 314.508 656.019 313.011L660.702 311.513L689.468 286.805L711.543 241.88L718.233 235.89L725.592 225.408L730.943 214.925L738.302 200.699L745.661 187.222L753.019 172.996L759.709 167.006V155.056L765.061 148.287L769.074 139.302V126.701L776.433 116.091V109.951H778.962V518.167H99.4404Z" fill="url(#paint3_linear_533_6499)"/>
<path d="M99.4404 518.167C98.7714 516.669 108.157 518.167 108.157 518.167L118.84 509.931H139.244L146.937 506.187H153.633L167.006 498.699H183.569L193.764 493.458C193.764 493.458 194.433 491.212 200.454 490.463C206.475 489.714 195.102 494.207 206.475 489.714L217.847 485.222L232.564 479.232H239.554H251.369L303.883 468.75C303.883 468.75 308.826 464.257 316.854 465.006L324.882 465.755L328.895 464.257L337.592 459.765L348.295 456.77L357.661 450.78H408.649C408.649 450.78 415.861 444.041 419.875 443.292L423.888 442.544L430.578 441.046H440.312L455.33 437.302H477.733L492.123 434.307C492.123 434.307 498.813 432.81 506.84 431.312L514.868 429.815H519.751C519.751 429.815 541.626 411.096 540.957 409.599C540.288 408.101 552.999 401.363 552.999 401.363L559.019 396.87L567.716 393.875L581.764 384.142L593.137 373.659L599.826 365.423L605.847 354.192L613.875 347.453C613.875 347.453 617.888 346.704 625.247 337.719L632.606 328.734L636.619 323.493L643.978 318.252C643.978 318.252 651.337 314.508 656.019 313.011L660.702 311.513L689.468 286.805L711.543 241.88L718.233 235.89L725.592 225.408L730.943 214.925L738.302 200.699L745.661 187.222L753.019 172.996L759.709 167.006V155.056L765.061 148.287L769.074 139.302V126.701L776.433 116.091V109.951H778.962" stroke="#3A8195" stroke-width="2.44444" stroke-miterlimit="10"/>
<path d="M60.6963 242.841C58.9417 242.841 57.3376 242.089 57.3376 240.522C57.3376 239.507 58.1271 238.73 59.1297 238.379C58.2023 238.053 57.4754 237.452 57.4754 236.412C57.4754 234.845 59.1423 234.206 60.6963 234.206C62.2379 234.206 63.9172 234.845 63.9172 236.412C63.9172 237.452 63.1778 238.053 62.2504 238.379C63.253 238.73 64.0551 239.507 64.0551 240.522C64.0551 242.077 62.4509 242.841 60.6963 242.841ZM60.6963 237.678C61.2102 237.602 62.1 237.314 62.1 236.687C62.1 236.086 61.511 235.735 60.6963 235.735C59.8692 235.735 59.2801 236.086 59.2801 236.687C59.2801 237.314 60.1825 237.602 60.6963 237.678ZM60.6963 241.312C61.5486 241.312 62.2504 240.911 62.2504 240.297C62.2504 239.595 61.2102 239.257 60.6963 239.181C60.17 239.257 59.1423 239.595 59.1423 240.297C59.1423 240.911 59.819 241.312 60.6963 241.312ZM68.3845 242.841C65.9907 242.841 64.9254 240.673 64.9254 238.517C64.9254 236.362 65.9907 234.206 68.3845 234.206C70.7657 234.206 71.8435 236.362 71.8435 238.517C71.8435 240.673 70.7657 242.841 68.3845 242.841ZM68.3845 241.262C69.5751 241.262 70.0263 240.059 70.0263 238.517C70.0263 236.976 69.5751 235.785 68.3845 235.785C67.1813 235.785 66.7302 236.976 66.7302 238.517C66.7302 240.059 67.1813 241.262 68.3845 241.262ZM76.1563 242.841C73.7625 242.841 72.6972 240.673 72.6972 238.517C72.6972 236.362 73.7625 234.206 76.1563 234.206C78.5375 234.206 79.6153 236.362 79.6153 238.517C79.6153 240.673 78.5375 242.841 76.1563 242.841ZM76.1563 241.262C77.3469 241.262 77.7981 240.059 77.7981 238.517C77.7981 236.976 77.3469 235.785 76.1563 235.785C74.9531 235.785 74.5019 236.976 74.5019 238.517C74.5019 240.059 74.9531 241.262 76.1563 241.262ZM83.928 242.841C81.5343 242.841 80.469 240.673 80.469 238.517C80.469 236.362 81.5343 234.206 83.928 234.206C86.3093 234.206 87.3871 236.362 87.3871 238.517C87.3871 240.673 86.3093 242.841 83.928 242.841ZM83.928 241.262C85.1187 241.262 85.5698 240.059 85.5698 238.517C85.5698 236.976 85.1187 235.785 83.928 235.785C82.7249 235.785 82.2737 236.976 82.2737 238.517C82.2737 240.059 82.7249 241.262 83.928 241.262Z" fill="#443F34"/>
<path d="M60.91 314.017C58.3658 314.017 57.3005 312.062 57.3005 309.705C57.3005 307.174 58.7293 305.382 61.1982 305.382C62.2134 305.382 63.0656 305.733 63.6672 306.246L62.8651 307.612C62.4139 307.186 61.9377 306.961 61.1982 306.961C59.97 306.961 59.1053 308.001 59.1053 309.329C59.1053 309.392 59.1053 309.442 59.1178 309.505C59.5063 308.941 60.346 308.427 61.2609 308.427C62.7648 308.427 64.1058 309.367 64.1058 311.147C64.1058 312.776 62.815 314.017 60.91 314.017ZM60.8097 312.438C61.7747 312.438 62.3011 311.798 62.3011 311.209C62.3011 310.332 61.5491 309.956 60.747 309.956C60.1204 309.956 59.5188 310.244 59.1178 310.746C59.193 311.548 59.6442 312.438 60.8097 312.438ZM68.3845 314.017C65.9907 314.017 64.9254 311.849 64.9254 309.693C64.9254 307.537 65.9907 305.382 68.3845 305.382C70.7657 305.382 71.8435 307.537 71.8435 309.693C71.8435 311.849 70.7657 314.017 68.3845 314.017ZM68.3845 312.438C69.5751 312.438 70.0263 311.234 70.0263 309.693C70.0263 308.151 69.5751 306.961 68.3845 306.961C67.1813 306.961 66.7302 308.151 66.7302 309.693C66.7302 311.234 67.1813 312.438 68.3845 312.438ZM76.1563 314.017C73.7625 314.017 72.6972 311.849 72.6972 309.693C72.6972 307.537 73.7625 305.382 76.1563 305.382C78.5375 305.382 79.6153 307.537 79.6153 309.693C79.6153 311.849 78.5375 314.017 76.1563 314.017ZM76.1563 312.438C77.3469 312.438 77.7981 311.234 77.7981 309.693C77.7981 308.151 77.3469 306.961 76.1563 306.961C74.9531 306.961 74.5019 308.151 74.5019 309.693C74.5019 311.234 74.9531 312.438 76.1563 312.438ZM83.928 314.017C81.5343 314.017 80.469 311.849 80.469 309.693C80.469 307.537 81.5343 305.382 83.928 305.382C86.3093 305.382 87.3871 307.537 87.3871 309.693C87.3871 311.849 86.3093 314.017 83.928 314.017ZM83.928 312.438C85.1187 312.438 85.5698 311.234 85.5698 309.693C85.5698 308.151 85.1187 306.961 83.928 306.961C82.7249 306.961 82.2737 308.151 82.2737 309.693C82.2737 311.234 82.7249 312.438 83.928 312.438Z" fill="#443F34"/>
<path d="M63.1122 385.042H61.3326V383.312H57.3346V381.909L60.6558 376.683H63.1122V381.746H64.19V383.312H63.1122V385.042ZM61.3326 381.746V378.262L59.0767 381.746H61.3326ZM68.3845 385.192C65.9907 385.192 64.9254 383.024 64.9254 380.869C64.9254 378.713 65.9907 376.557 68.3845 376.557C70.7657 376.557 71.8435 378.713 71.8435 380.869C71.8435 383.024 70.7657 385.192 68.3845 385.192ZM68.3845 383.613C69.5751 383.613 70.0263 382.41 70.0263 380.869C70.0263 379.327 69.5751 378.136 68.3845 378.136C67.1813 378.136 66.7302 379.327 66.7302 380.869C66.7302 382.41 67.1813 383.613 68.3845 383.613ZM76.1563 385.192C73.7625 385.192 72.6972 383.024 72.6972 380.869C72.6972 378.713 73.7625 376.557 76.1563 376.557C78.5375 376.557 79.6153 378.713 79.6153 380.869C79.6153 383.024 78.5375 385.192 76.1563 385.192ZM76.1563 383.613C77.3469 383.613 77.7981 382.41 77.7981 380.869C77.7981 379.327 77.3469 378.136 76.1563 378.136C74.9531 378.136 74.5019 379.327 74.5019 380.869C74.5019 382.41 74.9531 383.613 76.1563 383.613ZM83.928 385.192C81.5343 385.192 80.469 383.024 80.469 380.869C80.469 378.713 81.5343 376.557 83.928 376.557C86.3093 376.557 87.3871 378.713 87.3871 380.869C87.3871 383.024 86.3093 385.192 83.928 385.192ZM83.928 383.613C85.1187 383.613 85.5698 382.41 85.5698 380.869C85.5698 379.327 85.1187 378.136 83.928 378.136C82.7249 378.136 82.2737 379.327 82.2737 380.869C82.2737 382.41 82.7249 383.613 83.928 383.613Z" fill="#443F34"/>
<path d="M63.8651 456.218H57.5736V454.827C60.9951 452.295 61.9977 451.43 61.9977 450.402C61.9977 449.676 61.3334 449.312 60.6441 449.312C59.6917 449.312 58.9648 449.688 58.4008 450.277L57.3856 449.099C58.2003 448.159 59.441 447.733 60.6065 447.733C62.3862 447.733 63.8024 448.736 63.8024 450.402C63.8024 451.831 62.6243 453.072 60.4562 454.651H63.8651V456.218ZM68.3845 456.368C65.9907 456.368 64.9254 454.2 64.9254 452.044C64.9254 449.889 65.9907 447.733 68.3845 447.733C70.7657 447.733 71.8435 449.889 71.8435 452.044C71.8435 454.2 70.7657 456.368 68.3845 456.368ZM68.3845 454.789C69.5751 454.789 70.0263 453.586 70.0263 452.044C70.0263 450.503 69.5751 449.312 68.3845 449.312C67.1813 449.312 66.7302 450.503 66.7302 452.044C66.7302 453.586 67.1813 454.789 68.3845 454.789ZM76.1563 456.368C73.7625 456.368 72.6972 454.2 72.6972 452.044C72.6972 449.889 73.7625 447.733 76.1563 447.733C78.5375 447.733 79.6153 449.889 79.6153 452.044C79.6153 454.2 78.5375 456.368 76.1563 456.368ZM76.1563 454.789C77.3469 454.789 77.7981 453.586 77.7981 452.044C77.7981 450.503 77.3469 449.312 76.1563 449.312C74.9531 449.312 74.5019 450.503 74.5019 452.044C74.5019 453.586 74.9531 454.789 76.1563 454.789ZM83.928 456.368C81.5343 456.368 80.469 454.2 80.469 452.044C80.469 449.889 81.5343 447.733 83.928 447.733C86.3093 447.733 87.3871 449.889 87.3871 452.044C87.3871 454.2 86.3093 456.368 83.928 456.368ZM83.928 454.789C85.1187 454.789 85.5698 453.586 85.5698 452.044C85.5698 450.503 85.1187 449.312 83.928 449.312C82.7249 449.312 82.2737 450.503 82.2737 452.044C82.2737 453.586 82.7249 454.789 83.928 454.789Z" fill="#443F34"/>
<path d="M83.928 527.544C81.5343 527.544 80.469 525.376 80.469 523.22C80.469 521.064 81.5343 518.909 83.928 518.909C86.3093 518.909 87.3871 521.064 87.3871 523.22C87.3871 525.376 86.3093 527.544 83.928 527.544ZM83.928 525.965C85.1187 525.965 85.5698 524.761 85.5698 523.22C85.5698 521.678 85.1187 520.488 83.928 520.488C82.7249 520.488 82.2737 521.678 82.2737 523.22C82.2737 524.761 82.7249 525.965 83.928 525.965Z" fill="#443F34"/>
<path d="M-2.44531 43.78H598.073C602.123 43.78 605.407 47.0633 605.407 51.1134V114.669C605.407 118.719 602.123 122.002 598.073 122.002H-2.44531V43.78Z" fill="white"/>
<path d="M203.792 92.9274C198.223 92.9274 194.151 88.938 194.151 83.3695C194.151 77.801 198.223 73.8117 203.792 73.8117C209.388 73.8117 213.461 77.801 213.461 83.3695C213.461 88.938 209.388 92.9274 203.792 92.9274ZM203.792 89.4367C207.2 89.4367 209.416 86.8048 209.416 83.3695C209.416 79.9065 207.2 77.3024 203.792 77.3024C200.384 77.3024 198.196 79.9065 198.196 83.3695C198.196 86.8048 200.384 89.4367 203.792 89.4367ZM228.688 92.595H225.17V84.5054C225.17 82.6492 224.2 82.012 222.704 82.012C221.319 82.012 220.238 82.7878 219.657 83.5912V92.595H216.138V79.2139H219.657V80.9593C220.515 79.9342 222.15 78.8815 224.339 78.8815C227.275 78.8815 228.688 80.5437 228.688 83.1479V92.595ZM235.7 92.595H232.182V74.1164H235.7V92.595ZM240.934 77.7733C239.798 77.7733 238.829 76.8314 238.829 75.6678C238.829 74.5043 239.798 73.59 240.934 73.59C242.098 73.59 243.04 74.5043 243.04 75.6678C243.04 76.8314 242.098 77.7733 240.934 77.7733ZM242.707 92.595H239.189V79.2139H242.707V92.595ZM258.746 92.595H255.227V84.5054C255.227 82.6492 254.258 82.012 252.762 82.012C251.377 82.012 250.296 82.7878 249.714 83.5912V92.595H246.196V79.2139H249.714V80.9593C250.573 79.9342 252.208 78.8815 254.396 78.8815C257.333 78.8815 258.746 80.5437 258.746 83.1479V92.595ZM268.528 92.9274C264.456 92.9274 261.381 90.1847 261.381 85.8906C261.381 82.012 264.234 78.8815 268.307 78.8815C272.296 78.8815 275.011 81.8735 275.011 86.2508V87.0265H265.065C265.287 88.7164 266.644 90.1293 268.916 90.1293C270.052 90.1293 271.631 89.6306 272.49 88.7995L274.041 91.0713C272.711 92.2902 270.606 92.9274 268.528 92.9274ZM271.603 84.6439C271.52 83.3695 270.634 81.6796 268.307 81.6796C266.118 81.6796 265.176 83.3141 265.01 84.6439H271.603ZM299.684 92.595H295.168L291.539 86.0291H288.658V92.595H284.724V74.1164H293.367C297.218 74.1164 299.573 76.6375 299.573 80.0728C299.573 83.3418 297.523 85.0872 295.528 85.5582L299.684 92.595ZM292.786 82.5661C294.365 82.5661 295.556 81.6242 295.556 80.0728C295.556 78.5213 294.365 77.5794 292.786 77.5794H288.658V82.5661H292.786ZM307.893 92.9274C303.82 92.9274 300.745 90.1847 300.745 85.8906C300.745 82.012 303.599 78.8815 307.671 78.8815C311.66 78.8815 314.375 81.8735 314.375 86.2508V87.0265H304.43C304.651 88.7164 306.009 90.1293 308.281 90.1293C309.416 90.1293 310.996 89.6306 311.854 88.7995L313.406 91.0713C312.076 92.2902 309.971 92.9274 307.893 92.9274ZM310.968 84.6439C310.885 83.3695 309.998 81.6796 307.671 81.6796C305.482 81.6796 304.541 83.3141 304.374 84.6439H310.968ZM324.175 92.595H320.38L315.005 79.2139H318.773L322.264 88.5225L325.754 79.2139H329.55L324.175 92.595ZM332.866 77.7733C331.73 77.7733 330.76 76.8314 330.76 75.6678C330.76 74.5043 331.73 73.59 332.866 73.59C334.029 73.59 334.971 74.5043 334.971 75.6678C334.971 76.8314 334.029 77.7733 332.866 77.7733ZM334.639 92.595H331.121V79.2139H334.639V92.595ZM344.417 92.9274C340.344 92.9274 337.269 90.1847 337.269 85.8906C337.269 82.012 340.122 78.8815 344.195 78.8815C348.184 78.8815 350.899 81.8735 350.899 86.2508V87.0265H340.954C341.175 88.7164 342.533 90.1293 344.804 90.1293C345.94 90.1293 347.519 89.6306 348.378 88.7995L349.93 91.0713C348.6 92.2902 346.494 92.9274 344.417 92.9274ZM347.492 84.6439C347.409 83.3695 346.522 81.6796 344.195 81.6796C342.006 81.6796 341.064 83.3141 340.898 84.6439H347.492ZM368.927 92.595H365.187L362.361 83.4804L359.536 92.595H355.768L351.695 79.2139H355.352L357.846 88.2177L360.782 79.2139H363.913L366.849 88.2177L369.343 79.2139H373L368.927 92.595ZM392.016 92.595H387.085L379.937 74.1164H384.425L389.55 88.3286L394.648 74.1164H399.136L392.016 92.595ZM405.315 92.9274C400.91 92.9274 398.25 89.7138 398.25 85.8906C398.25 82.0952 400.91 78.8815 405.315 78.8815C409.747 78.8815 412.407 82.0952 412.407 85.8906C412.407 89.7138 409.747 92.9274 405.315 92.9274ZM405.315 89.7969C407.503 89.7969 408.75 87.9961 408.75 85.8906C408.75 83.8128 407.503 82.012 405.315 82.012C403.126 82.012 401.907 83.8128 401.907 85.8906C401.907 87.9961 403.126 89.7969 405.315 89.7969ZM418.536 92.595H415.017V74.1164H418.536V92.595ZM434.574 92.595H431.056V90.905C430.142 91.9301 428.535 92.9274 426.346 92.9274C423.409 92.9274 422.024 91.3206 422.024 88.7164V79.2139H425.543V87.3312C425.543 89.1874 426.512 89.7969 428.008 89.7969C429.366 89.7969 430.446 89.0489 431.056 88.2731V79.2139H434.574V92.595ZM458.208 92.595H454.662V84.1453C454.662 82.8986 454.108 82.012 452.668 82.012C451.421 82.012 450.396 82.8432 449.897 83.5635V92.595H446.351V84.1453C446.351 82.8986 445.797 82.012 444.356 82.012C443.138 82.012 442.112 82.8432 441.586 83.5912V92.595H438.068V79.2139H441.586V80.9593C442.14 80.1559 443.913 78.8815 445.963 78.8815C447.93 78.8815 449.177 79.7957 449.676 81.3194C450.451 80.1005 452.224 78.8815 454.275 78.8815C456.74 78.8815 458.208 80.1836 458.208 82.9263V92.595ZM467.948 92.9274C463.876 92.9274 460.801 90.1847 460.801 85.8906C460.801 82.012 463.654 78.8815 467.727 78.8815C471.716 78.8815 474.431 81.8735 474.431 86.2508V87.0265H464.485C464.707 88.7164 466.064 90.1293 468.336 90.1293C469.472 90.1293 471.051 89.6306 471.91 88.7995L473.461 91.0713C472.131 92.2902 470.026 92.9274 467.948 92.9274ZM471.023 84.6439C470.94 83.3695 470.054 81.6796 467.727 81.6796C465.538 81.6796 464.596 83.3141 464.43 84.6439H471.023ZM493.092 92.9274C487.551 92.9274 483.257 89.0489 483.257 83.3695C483.257 77.6902 487.551 73.8117 493.092 73.8117C497.165 73.8117 499.519 76.028 500.822 78.3274L497.442 79.9897C496.666 78.4936 495.004 77.3024 493.092 77.3024C489.74 77.3024 487.302 79.8788 487.302 83.3695C487.302 86.8602 489.74 89.4367 493.092 89.4367C495.004 89.4367 496.666 88.2731 497.442 86.7494L500.822 88.384C499.492 90.6834 497.165 92.9274 493.092 92.9274ZM515.658 92.595H512.139V84.45C512.139 82.5938 511.17 82.012 509.646 82.012C508.288 82.012 507.208 82.7878 506.598 83.5912V92.595H503.08V74.1164H506.598V80.9593C507.457 79.9342 509.12 78.8815 511.308 78.8815C514.245 78.8815 515.658 80.4883 515.658 83.0925V92.595ZM530.703 92.595H527.185V91.2098C526.27 92.2902 524.691 92.9274 522.946 92.9274C520.813 92.9274 518.292 91.4868 518.292 88.4948C518.292 85.3642 520.813 84.173 522.946 84.173C524.719 84.173 526.298 84.7547 527.185 85.8075V84.0067C527.185 82.6492 526.021 81.7627 524.248 81.7627C522.807 81.7627 521.478 82.2891 520.342 83.3418L519.012 80.987C520.647 79.5464 522.752 78.8815 524.858 78.8815C527.905 78.8815 530.703 80.1005 530.703 83.9513V92.595ZM524.359 90.5449C525.495 90.5449 526.603 90.157 527.185 89.3813V87.7191C526.603 86.9434 525.495 86.5555 524.359 86.5555C522.974 86.5555 521.838 87.2758 521.838 88.5779C521.838 89.8246 522.974 90.5449 524.359 90.5449ZM546.743 92.595H543.224V84.5054C543.224 82.6492 542.255 82.012 540.759 82.012C539.374 82.012 538.293 82.7878 537.711 83.5912V92.595H534.193V79.2139H537.711V80.9593C538.57 79.9342 540.205 78.8815 542.393 78.8815C545.33 78.8815 546.743 80.5437 546.743 83.1479V92.595ZM555.722 98.025C553.422 98.025 551.649 97.4986 549.959 96.0303L551.538 93.4815C552.619 94.6728 554.032 95.1437 555.722 95.1437C557.412 95.1437 559.406 94.3957 559.406 91.7639V90.4064C558.354 91.7361 556.913 92.5119 555.279 92.5119C551.926 92.5119 549.378 90.157 549.378 85.6967C549.378 81.3194 551.899 78.8815 555.279 78.8815C556.885 78.8815 558.326 79.5741 559.406 80.9316V79.2139H562.953V91.6807C562.953 96.7783 559.019 98.025 555.722 98.025ZM556.387 89.3813C557.55 89.3813 558.825 88.7164 559.406 87.8576V83.5358C558.825 82.6492 557.55 82.012 556.387 82.012C554.392 82.012 553.007 83.3972 553.007 85.6967C553.007 87.9961 554.392 89.3813 556.387 89.3813ZM572.731 92.9274C568.658 92.9274 565.583 90.1847 565.583 85.8906C565.583 82.012 568.437 78.8815 572.509 78.8815C576.499 78.8815 579.214 81.8735 579.214 86.2508V87.0265H569.268C569.49 88.7164 570.847 90.1293 573.119 90.1293C574.255 90.1293 575.834 89.6306 576.693 88.7995L578.244 91.0713C576.914 92.2902 574.809 92.9274 572.731 92.9274ZM575.806 84.6439C575.723 83.3695 574.836 81.6796 572.509 81.6796C570.321 81.6796 569.379 83.3141 569.213 84.6439H575.806Z" fill="#443F34"/>
<line x1="779.353" y1="82.8914" x2="779.353" y2="456.077" stroke="url(#paint4_linear_533_6499)" stroke-width="0.783297"/>
<g filter="url(#filter0_d_533_6499)">
<circle cx="779.4" cy="104.513" r="9.39957" fill="#3A8195"/>
</g>
<g filter="url(#filter1_d_533_6499)">
<circle cx="655.548" cy="283.352" r="9.39957" fill="#3A8195"/>
</g>
<line x1="655.503" y1="283.335" x2="655.503" y2="465.854" stroke="url(#paint5_linear_533_6499)" stroke-width="0.783297"/>
<g filter="url(#filter2_d_533_6499)">
<circle cx="511.325" cy="388.463" r="9.39957" fill="#3A8195"/>
</g>
<line x1="511.281" y1="388.841" x2="511.281" y2="466.249" stroke="url(#paint6_linear_533_6499)" stroke-width="0.783297"/>
<g filter="url(#filter3_d_533_6499)">
<circle cx="377.696" cy="407.204" r="9.39957" fill="#3A8195"/>
</g>
<line x1="378.466" y1="398.619" x2="378.466" y2="466.248" stroke="url(#paint7_linear_533_6499)" stroke-width="0.783297"/>
<g filter="url(#filter4_d_533_6499)">
<circle cx="250.587" cy="433.278" r="9.39957" fill="#443F34"/>
</g>
<path d="M250.965 396.175L250.965 471.138" stroke="url(#paint8_linear_533_6499)" stroke-width="0.783297"/>
<g filter="url(#filter5_d_533_6499)">
<rect x="201.258" y="385.582" width="99.6321" height="30.6659" rx="15.333" fill="white" shape-rendering="crispEdges"/>
<path d="M218.851 404.566C216.307 404.566 215.242 402.611 215.242 400.254C215.242 397.723 216.671 395.931 219.14 395.931C220.155 395.931 221.007 396.281 221.609 396.795L220.806 398.161C220.355 397.735 219.879 397.51 219.14 397.51C217.911 397.51 217.047 398.55 217.047 399.878C217.047 399.941 217.047 399.991 217.059 400.054C217.448 399.49 218.287 398.976 219.202 398.976C220.706 398.976 222.047 399.916 222.047 401.696C222.047 403.325 220.756 404.566 218.851 404.566ZM218.751 402.987C219.716 402.987 220.242 402.347 220.242 401.758C220.242 400.881 219.49 400.505 218.688 400.505C218.062 400.505 217.46 400.793 217.059 401.295C217.134 402.097 217.585 402.987 218.751 402.987ZM228.532 404.415H226.752V402.686H222.754V401.282L226.075 396.056H228.532V401.119H229.609V402.686H228.532V404.415ZM226.752 401.119V397.635L224.496 401.119H226.752ZM236.01 404.415H234.23V402.686H230.232V401.282L233.553 396.056H236.01V401.119H237.087V402.686H236.01V404.415ZM234.23 401.119V397.635L231.974 401.119H234.23ZM248.198 404.415H246.155L244.514 401.445H243.21V404.415H241.431V396.056H245.341C247.083 396.056 248.148 397.196 248.148 398.75C248.148 400.229 247.221 401.019 246.318 401.232L248.198 404.415ZM245.078 399.878C245.792 399.878 246.331 399.452 246.331 398.75C246.331 398.049 245.792 397.622 245.078 397.622H243.21V399.878H245.078ZM251.912 404.566C250.069 404.566 248.678 403.325 248.678 401.382C248.678 399.628 249.969 398.212 251.811 398.212C253.616 398.212 254.844 399.565 254.844 401.545V401.896H250.345C250.445 402.661 251.06 403.3 252.087 403.3C252.601 403.3 253.315 403.074 253.704 402.698L254.406 403.726C253.804 404.277 252.852 404.566 251.912 404.566ZM253.303 400.818C253.265 400.242 252.864 399.477 251.811 399.477C250.821 399.477 250.395 400.217 250.32 400.818H253.303ZM259.278 404.415H257.561L255.129 398.362H256.834L258.413 402.573L259.992 398.362H261.709L259.278 404.415ZM263.209 397.71C262.695 397.71 262.257 397.284 262.257 396.758C262.257 396.231 262.695 395.818 263.209 395.818C263.736 395.818 264.162 396.231 264.162 396.758C264.162 397.284 263.736 397.71 263.209 397.71ZM264.011 404.415H262.42V398.362H264.011V404.415ZM268.434 404.566C266.592 404.566 265.201 403.325 265.201 401.382C265.201 399.628 266.492 398.212 268.334 398.212C270.139 398.212 271.367 399.565 271.367 401.545V401.896H266.868C266.968 402.661 267.582 403.3 268.61 403.3C269.124 403.3 269.838 403.074 270.227 402.698L270.928 403.726C270.327 404.277 269.374 404.566 268.434 404.566ZM269.826 400.818C269.788 400.242 269.387 399.477 268.334 399.477C267.344 399.477 266.918 400.217 266.843 400.818H269.826ZM279.523 404.415H277.831L276.552 400.292L275.274 404.415H273.57L271.727 398.362H273.382L274.509 402.435L275.838 398.362H277.254L278.583 402.435L279.711 398.362H281.365L279.523 404.415ZM284.33 404.566C283.277 404.566 282.262 404.215 281.622 403.626L282.312 402.51C282.75 402.924 283.653 403.337 284.405 403.337C285.094 403.337 285.42 403.062 285.42 402.686C285.42 401.683 281.823 402.498 281.823 400.117C281.823 399.101 282.713 398.212 284.305 398.212C285.332 398.212 286.147 398.562 286.748 399.039L286.109 400.129C285.746 399.741 285.056 399.427 284.317 399.427C283.741 399.427 283.365 399.69 283.365 400.029C283.365 400.931 286.949 400.179 286.949 402.623C286.949 403.726 286.009 404.566 284.33 404.566Z" fill="#443F34"/>
</g>
<g filter="url(#filter6_d_533_6499)">
<rect x="724.371" y="57.6316" width="109.066" height="30.6659" rx="15.333" fill="#3A8195" shape-rendering="crispEdges"/>
<path d="M740.44 76.6024C739.425 76.6024 738.573 76.264 737.984 75.7377L738.774 74.3716C739.225 74.7977 739.701 75.0233 740.44 75.0233C741.819 75.0233 742.533 73.8703 742.533 72.6671C742.533 72.6045 742.533 72.5418 742.533 72.4792C742.132 73.0431 741.293 73.557 740.378 73.557C738.874 73.557 737.52 72.617 737.52 70.8374C737.52 69.2081 738.824 67.9674 740.729 67.9674C743.26 67.9674 744.326 69.9225 744.326 72.2912C744.326 74.8102 742.909 76.6024 740.44 76.6024ZM740.879 72.028C741.506 72.028 742.12 71.7397 742.521 71.2509C742.446 70.4488 741.995 69.5465 740.816 69.5465C739.864 69.5465 739.338 70.1982 739.338 70.7747C739.338 71.652 740.102 72.028 740.879 72.028ZM747.195 75.8505C747.195 76.7904 746.668 77.6301 745.904 78.1816L745.214 77.6176C745.615 77.4045 746.079 76.8782 746.179 76.4395C746.142 76.452 746.029 76.4771 745.941 76.4771C745.465 76.4771 745.089 76.1137 745.089 75.5747C745.089 75.0233 745.54 74.5721 746.067 74.5721C746.656 74.5721 747.195 75.0358 747.195 75.8505ZM753.798 76.4646H752.018V74.735H748.02V73.3314L751.341 68.1052H753.798V73.1685H754.875V74.735H753.798V76.4646ZM752.018 73.1685V69.6843L749.762 73.1685H752.018ZM759.07 76.615C756.676 76.615 755.611 74.4468 755.611 72.2912C755.611 70.1355 756.676 67.9799 759.07 67.9799C761.451 67.9799 762.529 70.1355 762.529 72.2912C762.529 74.4468 761.451 76.615 759.07 76.615ZM759.07 75.0358C760.26 75.0358 760.712 73.8327 760.712 72.2912C760.712 70.7496 760.26 69.559 759.07 69.559C757.867 69.559 757.415 70.7496 757.415 72.2912C757.415 73.8327 757.867 75.0358 759.07 75.0358ZM766.842 76.615C764.448 76.615 763.383 74.4468 763.383 72.2912C763.383 70.1355 764.448 67.9799 766.842 67.9799C769.223 67.9799 770.301 70.1355 770.301 72.2912C770.301 74.4468 769.223 76.615 766.842 76.615ZM766.842 75.0358C768.032 75.0358 768.483 73.8327 768.483 72.2912C768.483 70.7496 768.032 69.559 766.842 69.559C765.638 69.559 765.187 70.7496 765.187 72.2912C765.187 73.8327 765.638 75.0358 766.842 75.0358ZM781.53 76.4646H779.487L777.845 73.4943H776.542V76.4646H774.762V68.1052H778.672C780.414 68.1052 781.48 69.2457 781.48 70.7998C781.48 72.2786 780.552 73.0682 779.65 73.2812L781.53 76.4646ZM778.409 71.9277C779.123 71.9277 779.662 71.5016 779.662 70.7998C779.662 70.0979 779.123 69.6718 778.409 69.6718H776.542V71.9277H778.409ZM785.243 76.615C783.401 76.615 782.01 75.3742 782.01 73.4316C782.01 71.6771 783.301 70.2609 785.143 70.2609C786.948 70.2609 788.176 71.6144 788.176 73.5946V73.9455H783.677C783.777 74.71 784.391 75.3492 785.419 75.3492C785.932 75.3492 786.647 75.1236 787.035 74.7476L787.737 75.7753C787.136 76.3267 786.183 76.615 785.243 76.615ZM786.634 72.8677C786.597 72.2912 786.196 71.5267 785.143 71.5267C784.153 71.5267 783.727 72.2661 783.652 72.8677H786.634ZM792.609 76.4646H790.892L788.461 70.4112H790.165L791.744 74.6223L793.323 70.4112H795.04L792.609 76.4646ZM796.541 69.7595C796.027 69.7595 795.588 69.3334 795.588 68.8071C795.588 68.2807 796.027 67.8671 796.541 67.8671C797.067 67.8671 797.493 68.2807 797.493 68.8071C797.493 69.3334 797.067 69.7595 796.541 69.7595ZM797.343 76.4646H795.751V70.4112H797.343V76.4646ZM801.766 76.615C799.924 76.615 798.532 75.3742 798.532 73.4316C798.532 71.6771 799.823 70.2609 801.666 70.2609C803.47 70.2609 804.699 71.6144 804.699 73.5946V73.9455H800.199C800.3 74.71 800.914 75.3492 801.941 75.3492C802.455 75.3492 803.17 75.1236 803.558 74.7476L804.26 75.7753C803.658 76.3267 802.706 76.615 801.766 76.615ZM803.157 72.8677C803.119 72.2912 802.718 71.5267 801.666 71.5267C800.676 71.5267 800.249 72.2661 800.174 72.8677H803.157ZM812.854 76.4646H811.162L809.884 72.3413L808.605 76.4646H806.901L805.059 70.4112H806.713L807.841 74.4844L809.169 70.4112H810.586L811.914 74.4844L813.042 70.4112H814.696L812.854 76.4646ZM817.661 76.615C816.608 76.615 815.593 76.264 814.954 75.675L815.643 74.5596C816.082 74.9732 816.984 75.3868 817.736 75.3868C818.426 75.3868 818.751 75.111 818.751 74.735C818.751 73.7324 815.154 74.5471 815.154 72.1658C815.154 71.1507 816.044 70.2609 817.636 70.2609C818.664 70.2609 819.478 70.6118 820.08 71.088L819.441 72.1784C819.077 71.7899 818.388 71.4765 817.648 71.4765C817.072 71.4765 816.696 71.7397 816.696 72.0781C816.696 72.9805 820.28 72.2285 820.28 74.6724C820.28 75.7753 819.34 76.615 817.661 76.615Z" fill="white"/>
</g>
<g filter="url(#filter7_d_533_6499)">
<path fill-rule="evenodd" clip-rule="evenodd" d="M386.088 360.756C400.079 359.027 413.644 352.9 424.552 342.338C451.224 316.514 451.912 273.956 426.087 247.284C400.262 220.612 357.705 219.924 331.033 245.749C304.36 271.574 303.673 314.131 329.498 340.803C339.867 351.512 352.933 358.033 366.585 360.33L376.304 386.217L386.088 360.756Z" fill="white"/>
<path d="M386.088 360.756L385.988 359.947L385.502 360.007L385.327 360.464L386.088 360.756ZM366.585 360.33L367.348 360.043L367.183 359.604L366.72 359.526L366.585 360.33ZM376.304 386.217L375.541 386.504L376.295 388.512L377.064 386.51L376.304 386.217ZM423.985 341.753C413.209 352.187 399.809 358.239 385.988 359.947L386.188 361.565C400.348 359.815 414.079 353.613 425.119 342.924L423.985 341.753ZM425.502 247.851C451.013 274.2 450.334 316.241 423.985 341.753L425.119 342.924C452.115 316.786 452.81 273.713 426.672 246.717L425.502 247.851ZM331.6 246.334C357.949 220.823 399.99 221.502 425.502 247.851L426.672 246.717C400.535 219.722 357.462 219.026 330.466 245.164L331.6 246.334ZM330.083 340.236C304.572 313.887 305.251 271.846 331.6 246.334L330.466 245.164C303.47 271.301 302.775 314.374 328.912 341.37L330.083 340.236ZM366.72 359.526C353.234 357.257 340.327 350.817 330.083 340.236L328.912 341.37C339.406 352.208 352.632 358.808 366.45 361.133L366.72 359.526ZM377.066 385.931L367.348 360.043L365.822 360.616L375.541 386.504L377.066 385.931ZM385.327 360.464L375.543 385.925L377.064 386.51L386.848 361.048L385.327 360.464Z" fill="#E8E8E8"/>
</g>
<g clip-path="url(#clip1_533_6499)">
<path d="M396.121 302.423C396.001 302.597 395.875 302.771 395.756 302.945C396.234 303.275 396.536 303.741 396.536 304.27C396.536 305.265 395.466 306.067 394.144 306.067C392.822 306.067 391.752 305.259 391.752 304.27C391.752 303.747 392.054 303.281 392.533 302.951C392.401 302.759 392.268 302.566 392.174 302.429C391.526 302.877 391.104 303.53 391.104 304.27C391.104 305.619 392.47 306.714 394.144 306.714C395.819 306.714 397.185 305.619 397.185 304.27C397.185 303.53 396.763 302.877 396.115 302.429L396.121 302.423Z" fill="#6A8237"/>
<path d="M418.393 304.27H397.821V304.91H418.393V304.27Z" fill="#6A8237"/>
<path d="M390.443 304.27H336.645V304.91H390.443V304.27Z" fill="#6A8237"/>
<path d="M339.182 289.494H336.701V285.384H339.219V280.048H343.783V285.384H346.301V289.494H343.783V300.812H339.188V289.494H339.182Z" fill="#443F35"/>
<path d="M349.071 300.819H353.635V293.754C353.635 293.033 353.635 292.529 353.673 292.274C353.673 291.876 353.711 291.553 353.78 291.298C353.818 291.043 353.855 290.862 353.925 290.682C353.994 290.502 354.069 290.359 354.145 290.247C354.252 290.066 354.435 289.886 354.617 289.706C354.8 289.563 355.02 289.42 355.272 289.27C355.561 289.165 355.819 289.053 356.078 289.015C356.367 288.941 356.701 288.91 357.028 288.91C357.538 288.91 357.941 288.984 358.306 289.09C358.596 289.196 358.816 289.376 358.961 289.556C359.106 289.774 359.25 290.135 359.364 290.676C359.471 291.291 359.546 292.044 359.546 292.877V300.806H364.11V291.615C364.11 291.148 364.11 290.57 364.072 289.923C364.035 289.457 363.997 289.059 363.928 288.767C363.852 288.48 363.783 288.188 363.669 287.939C363.562 287.653 363.411 287.398 363.267 287.218C363.008 286.82 362.719 286.459 362.392 286.211C362.064 285.956 361.699 285.707 361.221 285.489C360.78 285.309 360.308 285.166 359.836 285.054C359.326 284.948 358.816 284.911 358.23 284.911C357.645 284.911 357.028 284.986 356.336 285.091C355.75 285.197 355.203 285.415 354.693 285.632C354.22 285.887 353.742 286.173 353.308 286.571V276.404H348.926V300.812H349.071V300.819Z" fill="#443F35"/>
<path d="M371.513 285.352H366.949V300.818H371.513V293.972C371.513 293.356 371.551 292.641 371.62 291.845C371.696 291.049 371.878 290.439 372.13 289.936C372.458 289.289 373.081 288.997 373.918 288.997C374.466 288.997 374.869 289.071 375.158 289.252C375.448 289.395 375.781 289.65 376.178 289.936L377.928 286.005C376.94 285.464 375.92 285.178 374.9 285.178H374.497C373.295 285.284 372.306 285.719 371.507 286.546V285.359L371.513 285.352Z" fill="#443F35"/>
<path d="M407.924 290.757C408.145 290.253 408.434 289.855 408.799 289.531C409.309 289.096 410.04 288.916 410.99 288.916C411.683 288.916 412.337 289.059 412.885 289.314C413.433 289.6 413.836 290.072 414.056 290.757H407.924ZM418.941 294.22V292.958C418.941 291.839 418.796 290.757 418.469 289.749C418.141 288.742 417.594 287.84 416.826 287.044C415.403 285.601 413.47 284.88 410.984 284.88C408.497 284.88 406.64 285.676 405.11 287.224C403.581 288.773 402.813 290.757 402.813 293.138C402.813 295.52 403.543 297.61 405.041 299.121C406.502 300.632 408.51 301.391 410.99 301.391C412.702 301.391 414.201 301.03 415.516 300.271C416.14 299.911 416.756 299.444 417.304 298.828C417.631 298.468 417.927 298.107 418.141 297.784C418.355 297.46 418.614 297.062 418.834 296.627L415.076 294.643C414.27 296.409 413.03 297.311 411.355 297.348H411.28C409.089 297.348 407.849 296.304 407.559 294.245H418.947V294.208L418.941 294.22Z" fill="#443F35"/>
<path d="M386.37 278.462C383.959 278.282 381.919 281.055 381.919 281.055C381.919 281.055 381.264 278.605 376.958 277.486C378.709 278.064 379.584 283.145 379.584 283.145V300.812H384.148V283.543C384.223 282.678 384.55 279.326 386.376 278.462H386.37Z" fill="#443F35"/>
<path d="M387.679 267.542C387.679 267.542 389.026 270.645 388.007 273.381C386.987 276.124 383.99 277.455 383.99 277.455C383.99 277.455 382.643 274.351 383.663 271.615C384.683 268.873 387.679 267.542 387.679 267.542Z" fill="#6A8237"/>
<path d="M394.654 264.01C394.654 264.01 395.202 266.932 393.817 269.165C392.432 271.366 389.656 272.013 389.656 272.013C389.656 272.013 389.108 269.09 390.493 266.858C391.878 264.656 394.654 264.01 394.654 264.01Z" fill="#6A8237"/>
<path d="M385.457 259.035C385.457 259.035 386.842 261.702 386.187 264.19C385.532 266.715 383.046 268.12 383.046 268.12C383.046 268.12 381.661 265.452 382.316 262.965C383.008 260.477 385.457 259.035 385.457 259.035Z" fill="#6A8237"/>
<path d="M367.503 266.889C367.503 266.889 370.424 266.168 372.76 267.393C375.095 268.618 375.901 271.323 375.901 271.323C375.901 271.323 372.98 272.044 370.645 270.819C368.347 269.594 367.503 266.889 367.503 266.889Z" fill="#6A8237"/>
<path d="M389.687 261.23C389.687 261.23 390.493 263.102 389.945 264.799C389.36 266.491 387.61 267.324 387.61 267.324C387.61 267.324 386.804 265.452 387.352 263.755C387.937 262.094 389.687 261.23 389.687 261.23Z" fill="#6A8237"/>
<path d="M372.137 262.424C372.137 262.424 374.145 262.71 375.278 264.084C376.411 265.415 376.228 267.33 376.228 267.33C376.228 267.33 374.22 267.044 373.087 265.67C371.954 264.296 372.137 262.424 372.137 262.424Z" fill="#6A8237"/>
<path d="M377.903 258.599C377.903 258.599 380.056 260.005 380.641 262.169C381.227 264.333 379.949 266.385 379.949 266.385C379.949 266.385 377.796 264.98 377.21 262.816C376.663 260.689 377.903 258.599 377.903 258.599Z" fill="#6A8237"/>
<path d="M397.575 271.684C397.575 271.684 396.99 274.998 394.251 276.621C391.551 278.244 387.717 277.598 387.717 277.598C387.717 277.598 388.302 274.283 391.041 272.66C393.779 270.999 397.575 271.684 397.575 271.684Z" fill="#6A8237"/>
<path d="M393.156 280.844C393.156 280.844 391.186 282.069 389.284 281.602C387.39 281.136 386.219 279.152 386.219 279.152C386.219 279.152 388.189 277.927 390.09 278.394C391.985 278.86 393.156 280.844 393.156 280.844Z" fill="#6A8237"/>
<path d="M377.827 265.844C377.827 265.844 381.22 267.685 382.171 271.074C383.121 274.463 381.296 278.07 381.296 278.07C381.296 278.07 377.903 276.229 376.952 272.84C376.002 269.488 377.827 265.844 377.827 265.844Z" fill="#6A8237"/>
<path d="M366.295 273.599C366.295 273.599 369.65 271.87 372.829 272.697C376.002 273.524 377.789 276.59 377.789 276.59C377.789 276.59 374.434 278.319 371.255 277.492C368.082 276.665 366.295 273.599 366.295 273.599Z" fill="#6A8237"/>
<path d="M370.311 280.52C370.311 280.52 371.771 278.499 373.924 278.176C376.077 277.89 378.048 279.438 378.048 279.438C378.048 279.438 376.587 281.459 374.434 281.783C372.281 282.069 370.311 280.52 370.311 280.52Z" fill="#6A8237"/>
<path d="M338.646 322.789V309.537H341.095V321.123H344.343V322.789H338.646Z" fill="#6A8237"/>
<path d="M357.702 322.97C356.751 322.97 355.996 322.796 355.436 322.447C354.875 322.099 354.466 321.595 354.227 320.942C353.981 320.289 353.862 319.512 353.862 318.617V313.66C353.862 312.765 353.981 312 354.227 311.359C354.472 310.719 354.875 310.234 355.436 309.898C355.996 309.562 356.757 309.388 357.702 309.388C358.646 309.388 359.439 309.556 359.993 309.898C360.547 310.24 360.956 310.725 361.202 311.359C361.454 312 361.573 312.765 361.573 313.66V318.635C361.573 319.518 361.447 320.283 361.202 320.936C360.956 321.583 360.547 322.087 359.993 322.441C359.433 322.796 358.671 322.97 357.702 322.97ZM357.702 321.185C358.111 321.185 358.413 321.098 358.602 320.924C358.797 320.75 358.923 320.507 358.992 320.202C359.062 319.898 359.093 319.562 359.093 319.201V313.101C359.093 312.727 359.062 312.398 358.992 312.099C358.929 311.807 358.797 311.571 358.602 311.403C358.407 311.235 358.105 311.148 357.702 311.148C357.318 311.148 357.022 311.235 356.827 311.403C356.625 311.571 356.493 311.801 356.43 312.099C356.367 312.392 356.329 312.727 356.329 313.101V319.201C356.329 319.562 356.361 319.891 356.418 320.202C356.474 320.513 356.606 320.75 356.808 320.924C357.009 321.098 357.305 321.185 357.702 321.185Z" fill="#6A8237"/>
<path d="M376.323 322.97C375.341 322.97 374.567 322.777 374.013 322.397C373.452 322.018 373.068 321.496 372.842 320.837C372.621 320.177 372.508 319.419 372.508 318.554V313.828C372.508 312.92 372.615 312.137 372.842 311.471C373.062 310.806 373.452 310.296 374.013 309.935C374.573 309.574 375.341 309.394 376.323 309.394C377.248 309.394 377.978 309.55 378.501 309.86C379.023 310.171 379.401 310.613 379.621 311.191C379.842 311.77 379.955 312.441 379.955 313.206V314.319H377.601V313.175C377.601 312.802 377.582 312.466 377.544 312.161C377.506 311.857 377.399 311.614 377.229 311.434C377.059 311.253 376.764 311.166 376.342 311.166C375.92 311.166 375.618 311.26 375.423 311.452C375.227 311.645 375.108 311.9 375.051 312.224C374.995 312.547 374.969 312.908 374.969 313.312V319.07C374.969 319.549 375.007 319.947 375.083 320.258C375.158 320.569 375.303 320.805 375.504 320.961C375.706 321.116 375.989 321.197 376.342 321.197C376.751 321.197 377.04 321.104 377.21 320.911C377.38 320.718 377.487 320.47 377.532 320.153C377.576 319.835 377.601 319.481 377.601 319.089V317.895H379.955V318.959C379.955 319.742 379.848 320.439 379.64 321.042C379.433 321.645 379.061 322.124 378.539 322.466C378.016 322.808 377.28 322.982 376.329 322.982L376.323 322.97Z" fill="#6A8237"/>
<path d="M390.153 322.789L392.835 309.537H395.454L398.135 322.789H395.869L395.34 319.73H393.005L392.457 322.789H390.153ZM393.25 318.194H395.07L394.157 312.628L393.244 318.194H393.25Z" fill="#6A8237"/>
<path d="M410.575 322.789V309.537H413.023V321.123H416.272V322.789H410.575Z" fill="#6A8237"/>
<path d="M391.097 291.59C390.795 290.862 390.594 290.166 390.594 289.6C390.594 287.678 392.18 286.117 394.132 286.117C396.083 286.117 397.67 287.678 397.67 289.6C397.67 290.166 397.468 290.862 397.166 291.59H400.886C401.088 290.862 401.207 290.178 401.207 289.569C401.207 285.726 398.035 282.604 394.132 282.604C390.229 282.604 387.056 285.732 387.056 289.569C387.056 290.178 387.176 290.862 387.377 291.59H391.097Z" fill="#443F35"/>
<path d="M396.738 292.51C395.687 294.587 394.132 296.639 394.132 296.639C394.132 296.639 392.57 294.587 391.525 292.51H387.667C389.379 297.392 394.132 303.648 394.132 303.648C394.132 303.648 398.884 297.392 400.597 292.51H396.738Z" fill="#6A8237"/>
</g>
<g clip-path="url(#clip2_533_6499)">
<mask id="mask1_533_6499" style="mask-type:luminance" maskUnits="userSpaceOnUse" x="48" y="71" width="129" height="24">
<path d="M176.815 71.4837H48.0741V94.2985H176.815V71.4837Z" fill="white"/>
</mask>
<g mask="url(#mask1_533_6499)">
<path d="M59.157 85.5736L53.7306 91.0039L48.2977 85.5801L53.7242 80.1498L59.157 85.5736ZM68.7804 80.1884L74.2133 85.6122L68.7933 91.0425L63.3604 85.6251L68.7804 80.1884ZM63.6501 75.0541C62.3176 73.7223 60.1548 73.7223 58.8223 75.0541L55.8098 78.0717L61.2426 83.4955L66.669 78.0652L63.6501 75.0541Z" fill="url(#paint9_linear_533_6499)"/>
<path d="M85.9366 76.9457H92.0132V79.352H85.9366V86.7511C85.9366 87.5553 86.001 88.218 86.1233 88.7392C86.2456 89.2603 86.4323 89.6721 86.6769 89.9745C86.9215 90.2705 87.2305 90.4828 87.6038 90.605C87.9707 90.7273 88.4084 90.7916 88.8976 90.7916C89.7602 90.7916 90.4554 90.6951 90.9768 90.4957C91.4982 90.3026 91.8651 90.1611 92.0711 90.0775L92.6247 92.4516C92.335 92.5931 91.8329 92.7733 91.112 92.992C90.391 93.2108 89.5671 93.3137 88.6466 93.3137C87.5587 93.3137 86.6576 93.1722 85.9495 92.8955C85.2414 92.6189 84.6685 92.2007 84.2372 91.6473C83.8059 91.094 83.5034 90.412 83.3296 89.5949C83.1558 88.7842 83.0657 87.8449 83.0657 86.7768V72.4806L85.9366 71.9852V76.9457Z" fill="#007DB5"/>
<path d="M100.524 76.5468C101.676 76.5468 102.648 76.6948 103.44 76.9907C104.232 77.2867 104.869 77.7113 105.352 78.2518C105.834 78.7987 106.182 79.4421 106.382 80.1949C106.587 80.9476 106.69 81.7712 106.69 82.6784V92.696C106.446 92.7346 106.098 92.7925 105.661 92.8633C105.216 92.9341 104.721 93.0049 104.167 93.0628C103.614 93.1271 103.008 93.1786 102.365 93.2301C101.715 93.2815 101.077 93.3073 100.44 93.3073C99.5325 93.3073 98.7021 93.2172 97.9425 93.0306C97.183 92.844 96.5264 92.5545 95.9664 92.1491C95.4128 91.7502 94.9815 91.2227 94.6725 90.56C94.3636 89.9037 94.2091 89.1123 94.2091 88.1858C94.2091 87.3044 94.3893 86.5452 94.7498 85.9082C95.1102 85.2712 95.5995 84.7565 96.2174 84.3641C96.8354 83.9716 97.5563 83.6885 98.3738 83.5019C99.1978 83.3153 100.06 83.2252 100.962 83.2252C101.251 83.2252 101.547 83.2381 101.856 83.2703C102.165 83.3025 102.455 83.3411 102.738 83.3925C103.015 83.444 103.26 83.489 103.466 83.5341C103.672 83.5727 103.813 83.6049 103.897 83.6242V82.8199C103.897 82.3502 103.845 81.8805 103.742 81.4173C103.639 80.9541 103.453 80.5423 103.189 80.182C102.918 79.8217 102.558 79.5322 102.094 79.3198C101.631 79.1011 101.032 78.9981 100.292 78.9981C99.3458 78.9981 98.5219 79.0625 97.8074 79.1976C97.0993 79.3327 96.5715 79.4678 96.2174 79.6158L95.8763 77.2417C96.2432 77.0744 96.8611 76.92 97.7237 76.7656C98.5798 76.624 99.5132 76.5468 100.524 76.5468ZM100.768 90.9138C101.444 90.9138 102.049 90.901 102.571 90.8688C103.092 90.8366 103.53 90.7787 103.884 90.7015V85.9211C103.678 85.8181 103.343 85.7345 102.88 85.6573C102.416 85.5865 101.856 85.5479 101.2 85.5479C100.768 85.5479 100.311 85.5801 99.8286 85.638C99.3458 85.7023 98.9017 85.831 98.5026 86.024C98.1035 86.217 97.7687 86.4873 97.4984 86.8283C97.228 87.1693 97.0993 87.6132 97.0993 88.1665C97.0993 89.196 97.4276 89.9101 98.0842 90.309C98.7472 90.7079 99.6355 90.9138 100.768 90.9138Z" fill="#007DB5"/>
<path d="M120.717 93.3134C120.491 92.863 120.215 92.3612 119.886 91.8014C119.558 91.2481 119.198 90.6755 118.805 90.09C118.412 89.5045 118.013 88.9254 117.601 88.3464C117.189 87.7738 116.79 87.2269 116.397 86.7122C116.005 87.2269 115.606 87.7738 115.194 88.3592C114.782 88.9447 114.389 89.5302 114.009 90.1157C113.63 90.7012 113.276 91.2738 112.947 91.8272C112.619 92.3805 112.342 92.8759 112.117 93.307H109.156C109.877 91.9108 110.733 90.4889 111.731 89.0412C112.728 87.5936 113.72 86.2103 114.705 84.8978L109.4 77.2864H112.638L116.462 82.8968L120.318 77.2864H123.369L118.187 84.7112C119.172 86.0495 120.189 87.4585 121.225 88.9512C122.262 90.4439 123.144 91.8915 123.864 93.3134H120.717Z" fill="#007DB5"/>
<path d="M132.495 76.9454C132.739 76.9454 133.022 76.9583 133.344 76.9905C133.66 77.0227 133.975 77.0613 134.284 77.1127C134.593 77.1642 134.876 77.2157 135.134 77.2671C135.391 77.3186 135.578 77.3637 135.707 77.4087L135.211 79.9051C134.986 79.8214 134.612 79.7249 134.085 79.6091C133.563 79.4933 132.887 79.4418 132.063 79.4418C131.529 79.4418 131.001 79.4997 130.473 79.6091C129.952 79.7249 129.604 79.8021 129.443 79.8407V93.307H126.572V77.9684C127.248 77.724 128.092 77.4923 129.102 77.2736C130.113 77.0548 131.246 76.9454 132.495 76.9454Z" fill="#007DB5"/>
<path d="M141.039 93.3134H138.168V77.2864H141.039V93.3134Z" fill="#007DB5"/>
<path d="M149.394 90.8816C150.566 90.8816 151.435 90.7272 152.001 90.4184C152.568 90.1095 152.851 89.6141 152.851 88.9385C152.851 88.2372 152.574 87.6839 152.021 87.2722C151.467 86.8604 150.553 86.3971 149.279 85.8824C148.661 85.6379 148.068 85.387 147.508 85.1296C146.942 84.8723 146.453 84.5699 146.041 84.2225C145.629 83.875 145.3 83.4504 145.056 82.9614C144.811 82.466 144.689 81.8612 144.689 81.1406C144.689 79.7251 145.21 78.5992 146.26 77.7628C147.309 76.9328 148.738 76.5146 150.547 76.5146C150.997 76.5146 151.448 76.5403 151.905 76.5918C152.355 76.6433 152.78 76.7076 153.167 76.7784C153.559 76.8491 153.9 76.9263 154.196 77.01C154.493 77.0936 154.724 77.1644 154.892 77.2287L154.37 79.6929C154.061 79.5257 153.579 79.3584 152.922 79.1847C152.265 79.0109 151.474 78.9209 150.547 78.9209C149.742 78.9209 149.047 79.0817 148.448 79.397C147.85 79.7187 147.553 80.2141 147.553 80.8897C147.553 81.2371 147.618 81.5459 147.753 81.8162C147.888 82.0864 148.094 82.3244 148.371 82.5432C148.648 82.7619 148.995 82.9614 149.401 83.1415C149.813 83.3281 150.302 83.5212 150.881 83.727C151.641 84.0166 152.323 84.2997 152.916 84.5763C153.514 84.853 154.023 85.1747 154.441 85.5478C154.859 85.9146 155.188 86.365 155.413 86.8861C155.638 87.4073 155.754 88.0507 155.754 88.8099C155.754 90.2897 155.207 91.4092 154.106 92.1684C153.006 92.9276 151.441 93.3072 149.401 93.3072C147.985 93.3072 146.871 93.1914 146.073 92.9533C145.268 92.7153 144.728 92.5351 144.438 92.4129L144.959 89.9487C145.288 90.0709 145.809 90.2575 146.53 90.502C147.251 90.7594 148.204 90.8816 149.394 90.8816Z" fill="#007DB5"/>
<path d="M158.213 84.9623C158.213 83.5468 158.419 82.3051 158.831 81.2499C159.243 80.1947 159.784 79.3133 160.466 78.612C161.142 77.9107 161.928 77.3895 162.809 77.0421C163.691 76.6947 164.599 76.5209 165.526 76.5209C167.682 76.5209 169.337 77.1965 170.489 78.5412C171.641 79.8859 172.214 81.9383 172.214 84.6921C172.214 84.8143 172.214 84.9752 172.214 85.1682C172.214 85.3612 172.201 85.5413 172.182 85.7086H161.207C161.329 87.375 161.812 88.6361 162.655 89.4982C163.498 90.3604 164.811 90.7915 166.601 90.7915C167.605 90.7915 168.455 90.7014 169.143 90.5277C169.832 90.3539 170.354 90.1867 170.701 90.0194L171.1 92.4257C170.753 92.6123 170.141 92.8053 169.266 93.0112C168.39 93.2171 167.399 93.32 166.292 93.32C164.895 93.32 163.685 93.1077 162.668 92.6895C161.651 92.2713 160.814 91.6858 160.157 90.9459C159.501 90.206 159.012 89.3309 158.69 88.3079C158.374 87.2914 158.213 86.1719 158.213 84.9623ZM169.227 83.3924C169.246 82.0992 168.925 81.0376 168.255 80.2012C167.586 79.3712 166.665 78.953 165.494 78.953C164.837 78.953 164.258 79.0817 163.749 79.339C163.247 79.5964 162.816 79.9309 162.468 80.3427C162.121 80.7545 161.844 81.2242 161.651 81.7582C161.458 82.2922 161.329 82.8391 161.265 83.3924H169.227Z" fill="#007DB5"/>
<path d="M175.001 78.3867C174.982 78.3416 174.956 78.2773 174.924 78.2065C174.892 78.1358 174.853 78.0521 174.821 77.9685C174.782 77.8848 174.744 77.7948 174.699 77.7047C174.654 77.6146 174.615 77.531 174.576 77.4473C174.538 77.3701 174.505 77.2929 174.473 77.2286C174.441 77.1642 174.415 77.1192 174.396 77.0806C174.377 77.3122 174.357 77.5696 174.345 77.8398C174.332 78.11 174.319 78.3867 174.306 78.6633H174.023C174.029 78.4832 174.042 78.303 174.048 78.1229C174.061 77.9427 174.068 77.7626 174.081 77.5889C174.094 77.4152 174.106 77.2414 174.119 77.0742C174.132 76.9069 174.151 76.7525 174.171 76.6045H174.422C174.473 76.6946 174.531 76.7975 174.596 76.9133C174.66 77.0291 174.718 77.1578 174.782 77.2865C174.847 77.4152 174.905 77.5438 174.963 77.6789C175.02 77.8076 175.072 77.9299 175.123 78.0328C175.168 77.9234 175.226 77.8076 175.278 77.6789C175.336 77.5503 175.394 77.4216 175.458 77.2865C175.523 77.1578 175.58 77.0291 175.645 76.9133C175.709 76.7975 175.761 76.6881 175.819 76.6045H176.07C176.134 77.2672 176.186 77.9556 176.224 78.6633H175.941C175.928 78.3867 175.922 78.11 175.902 77.8398C175.889 77.5696 175.87 77.3122 175.851 77.0806C175.832 77.1128 175.806 77.1642 175.774 77.2286C175.741 77.2929 175.703 77.3637 175.671 77.4473C175.632 77.5245 175.593 77.6146 175.548 77.7047C175.503 77.7948 175.465 77.8848 175.426 77.9685C175.387 78.0521 175.355 78.1358 175.323 78.2065C175.291 78.2773 175.265 78.3416 175.246 78.3867H175.001Z" fill="#007DB5"/>
<path d="M173.802 76.5595V76.8104H173.151V78.6248H172.862V76.8104H172.212V76.5595H173.802Z" fill="#007DB5"/>
</g>
</g>
</g>
<defs>
<filter id="filter0_d_533_6499" x="757.467" y="84.1474" width="43.8646" height="43.8646" filterUnits="userSpaceOnUse" color-interpolation-filters="sRGB">
<feFlood flood-opacity="0" result="BackgroundImageFix"/>
<feColorMatrix in="SourceAlpha" type="matrix" values="0 0 0 0 0 0 0 0 0 0 0 0 0 0 0 0 0 0 127 0" result="hardAlpha"/>
<feOffset dy="1.56659"/>
<feGaussianBlur stdDeviation="6.26638"/>
<feColorMatrix type="matrix" values="0 0 0 0 0.208333 0 0 0 0 0.208333 0 0 0 0 0.208333 0 0 0 0.32 0"/>
<feBlend mode="normal" in2="BackgroundImageFix" result="effect1_dropShadow_533_6499"/>
<feBlend mode="normal" in="SourceGraphic" in2="effect1_dropShadow_533_6499" result="shape"/>
</filter>
<filter id="filter1_d_533_6499" x="633.616" y="262.986" width="43.8646" height="43.8646" filterUnits="userSpaceOnUse" color-interpolation-filters="sRGB">
<feFlood flood-opacity="0" result="BackgroundImageFix"/>
<feColorMatrix in="SourceAlpha" type="matrix" values="0 0 0 0 0 0 0 0 0 0 0 0 0 0 0 0 0 0 127 0" result="hardAlpha"/>
<feOffset dy="1.56659"/>
<feGaussianBlur stdDeviation="6.26638"/>
<feColorMatrix type="matrix" values="0 0 0 0 0.208333 0 0 0 0 0.208333 0 0 0 0 0.208333 0 0 0 0.32 0"/>
<feBlend mode="normal" in2="BackgroundImageFix" result="effect1_dropShadow_533_6499"/>
<feBlend mode="normal" in="SourceGraphic" in2="effect1_dropShadow_533_6499" result="shape"/>
</filter>
<filter id="filter2_d_533_6499" x="489.393" y="368.098" width="43.8646" height="43.8646" filterUnits="userSpaceOnUse" color-interpolation-filters="sRGB">
<feFlood flood-opacity="0" result="BackgroundImageFix"/>
<feColorMatrix in="SourceAlpha" type="matrix" values="0 0 0 0 0 0 0 0 0 0 0 0 0 0 0 0 0 0 127 0" result="hardAlpha"/>
<feOffset dy="1.56659"/>
<feGaussianBlur stdDeviation="6.26638"/>
<feColorMatrix type="matrix" values="0 0 0 0 0.208333 0 0 0 0 0.208333 0 0 0 0 0.208333 0 0 0 0.32 0"/>
<feBlend mode="normal" in2="BackgroundImageFix" result="effect1_dropShadow_533_6499"/>
<feBlend mode="normal" in="SourceGraphic" in2="effect1_dropShadow_533_6499" result="shape"/>
</filter>
<filter id="filter3_d_533_6499" x="355.764" y="386.838" width="43.8646" height="43.8646" filterUnits="userSpaceOnUse" color-interpolation-filters="sRGB">
<feFlood flood-opacity="0" result="BackgroundImageFix"/>
<feColorMatrix in="SourceAlpha" type="matrix" values="0 0 0 0 0 0 0 0 0 0 0 0 0 0 0 0 0 0 127 0" result="hardAlpha"/>
<feOffset dy="1.56659"/>
<feGaussianBlur stdDeviation="6.26638"/>
<feColorMatrix type="matrix" values="0 0 0 0 0.208333 0 0 0 0 0.208333 0 0 0 0 0.208333 0 0 0 0.32 0"/>
<feBlend mode="normal" in2="BackgroundImageFix" result="effect1_dropShadow_533_6499"/>
<feBlend mode="normal" in="SourceGraphic" in2="effect1_dropShadow_533_6499" result="shape"/>
</filter>
<filter id="filter4_d_533_6499" x="228.655" y="412.912" width="43.8646" height="43.8646" filterUnits="userSpaceOnUse" color-interpolation-filters="sRGB">
<feFlood flood-opacity="0" result="BackgroundImageFix"/>
<feColorMatrix in="SourceAlpha" type="matrix" values="0 0 0 0 0 0 0 0 0 0 0 0 0 0 0 0 0 0 127 0" result="hardAlpha"/>
<feOffset dy="1.56659"/>
<feGaussianBlur stdDeviation="6.26638"/>
<feColorMatrix type="matrix" values="0 0 0 0 0.208333 0 0 0 0 0.208333 0 0 0 0 0.208333 0 0 0 0.32 0"/>
<feBlend mode="normal" in2="BackgroundImageFix" result="effect1_dropShadow_533_6499"/>
<feBlend mode="normal" in="SourceGraphic" in2="effect1_dropShadow_533_6499" result="shape"/>
</filter>
<filter id="filter5_d_533_6499" x="173.059" y="373.05" width="156.03" height="87.0633" filterUnits="userSpaceOnUse" color-interpolation-filters="sRGB">
<feFlood flood-opacity="0" result="BackgroundImageFix"/>
<feColorMatrix in="SourceAlpha" type="matrix" values="0 0 0 0 0 0 0 0 0 0 0 0 0 0 0 0 0 0 127 0" result="hardAlpha"/>
<feMorphology radius="3.13319" operator="erode" in="SourceAlpha" result="effect1_dropShadow_533_6499"/>
<feOffset dy="15.6659"/>
<feGaussianBlur stdDeviation="15.6659"/>
<feComposite in2="hardAlpha" operator="out"/>
<feColorMatrix type="matrix" values="0 0 0 0 0.568627 0 0 0 0 0.619608 0 0 0 0 0.670588 0 0 0 0.25 0"/>
<feBlend mode="normal" in2="BackgroundImageFix" result="effect1_dropShadow_533_6499"/>
<feBlend mode="normal" in="SourceGraphic" in2="effect1_dropShadow_533_6499" result="shape"/>
</filter>
<filter id="filter6_d_533_6499" x="696.172" y="45.0988" width="165.463" height="87.0633" filterUnits="userSpaceOnUse" color-interpolation-filters="sRGB">
<feFlood flood-opacity="0" result="BackgroundImageFix"/>
<feColorMatrix in="SourceAlpha" type="matrix" values="0 0 0 0 0 0 0 0 0 0 0 0 0 0 0 0 0 0 127 0" result="hardAlpha"/>
<feMorphology radius="3.13319" operator="erode" in="SourceAlpha" result="effect1_dropShadow_533_6499"/>
<feOffset dy="15.6659"/>
<feGaussianBlur stdDeviation="15.6659"/>
<feComposite in2="hardAlpha" operator="out"/>
<feColorMatrix type="matrix" values="0 0 0 0 0.568627 0 0 0 0 0.619608 0 0 0 0 0.670588 0 0 0 0.25 0"/>
<feBlend mode="normal" in2="BackgroundImageFix" result="effect1_dropShadow_533_6499"/>
<feBlend mode="normal" in="SourceGraphic" in2="effect1_dropShadow_533_6499" result="shape"/>
</filter>
<filter id="filter7_d_533_6499" x="280.422" y="212.97" width="194.741" height="221.172" filterUnits="userSpaceOnUse" color-interpolation-filters="sRGB">
<feFlood flood-opacity="0" result="BackgroundImageFix"/>
<feColorMatrix in="SourceAlpha" type="matrix" values="0 0 0 0 0 0 0 0 0 0 0 0 0 0 0 0 0 0 127 0" result="hardAlpha"/>
<feMorphology radius="3.25926" operator="erode" in="SourceAlpha" result="effect1_dropShadow_533_6499"/>
<feOffset dy="16.2963"/>
<feGaussianBlur stdDeviation="16.2963"/>
<feComposite in2="hardAlpha" operator="out"/>
<feColorMatrix type="matrix" values="0 0 0 0 0.568627 0 0 0 0 0.619608 0 0 0 0 0.670588 0 0 0 0.25 0"/>
<feBlend mode="normal" in2="BackgroundImageFix" result="effect1_dropShadow_533_6499"/>
<feBlend mode="normal" in="SourceGraphic" in2="effect1_dropShadow_533_6499" result="shape"/>
</filter>
<linearGradient id="paint0_linear_533_6499" x1="-458.467" y1="384.531" x2="511.268" y2="124.691" gradientUnits="userSpaceOnUse">
<stop stop-color="#BDE25F"/>
<stop offset="1" stop-color="#BDE25F" stop-opacity="0"/>
</linearGradient>
<linearGradient id="paint1_linear_533_6499" x1="-216.974" y1="220.806" x2="371.216" y2="808.997" gradientUnits="userSpaceOnUse">
<stop offset="0.506484" stop-color="#BDE25F"/>
<stop offset="1" stop-color="#BDE25F" stop-opacity="0"/>
</linearGradient>
<linearGradient id="paint2_linear_533_6499" x1="1328.47" y1="33.7738" x2="653.142" y2="-451.895" gradientUnits="userSpaceOnUse">
<stop offset="0.506484" stop-color="#BDE25F"/>
<stop offset="1" stop-color="#BDE25F" stop-opacity="0"/>
</linearGradient>
<linearGradient id="paint3_linear_533_6499" x1="439.184" y1="109.951" x2="439.184" y2="472.522" gradientUnits="userSpaceOnUse">
<stop stop-color="#398094" stop-opacity="0.12"/>
<stop offset="1" stop-color="#398094" stop-opacity="0"/>
</linearGradient>
<linearGradient id="paint4_linear_533_6499" x1="779.961" y1="82.8914" x2="779.961" y2="456.077" gradientUnits="userSpaceOnUse">
<stop stop-color="#3A8195"/>
<stop offset="1" stop-color="#3A8195" stop-opacity="0"/>
</linearGradient>
<linearGradient id="paint5_linear_533_6499" x1="656.111" y1="283.335" x2="656.111" y2="465.854" gradientUnits="userSpaceOnUse">
<stop stop-color="#3A8195"/>
<stop offset="1" stop-color="#3A8195" stop-opacity="0"/>
</linearGradient>
<linearGradient id="paint6_linear_533_6499" x1="511.889" y1="388.841" x2="511.889" y2="466.249" gradientUnits="userSpaceOnUse">
<stop stop-color="#3A8195"/>
<stop offset="1" stop-color="#3A8195" stop-opacity="0"/>
</linearGradient>
<linearGradient id="paint7_linear_533_6499" x1="379.075" y1="398.619" x2="379.075" y2="466.248" gradientUnits="userSpaceOnUse">
<stop stop-color="#3A8195"/>
<stop offset="1" stop-color="#3A8195" stop-opacity="0"/>
</linearGradient>
<linearGradient id="paint8_linear_533_6499" x1="250.488" y1="437.826" x2="250.488" y2="471.138" gradientUnits="userSpaceOnUse">
<stop stop-color="#443F34"/>
<stop offset="1" stop-color="#443F34" stop-opacity="0"/>
</linearGradient>
<linearGradient id="paint9_linear_533_6499" x1="48.3007" y1="82.5461" x2="74.2131" y2="82.5461" gradientUnits="userSpaceOnUse">
<stop stop-color="#37B7E5"/>
<stop offset="0.4698" stop-color="#007DB5"/>
<stop offset="1" stop-color="#0D4C7F"/>
</linearGradient>
<clipPath id="clip0_533_6499">
<rect y="0.780029" width="880" height="568.78" rx="8.14815" fill="white"/>
</clipPath>
<clipPath id="clip1_533_6499">
<rect width="82.2963" height="64.3704" fill="white" transform="translate(336.645 258.599)"/>
</clipPath>
<clipPath id="clip2_533_6499">
<rect width="128.741" height="22.8148" fill="white" transform="translate(48.0742 71.4836)"/>
</clipPath>
</defs>
</svg>
