<?xml version="1.0" encoding="UTF-8"?> <svg xmlns="http://www.w3.org/2000/svg" width="196" height="155" viewBox="0 0 196 155" fill="none"><g clip-path="url(#clip0_1_229)"><path d="M141.651 105.524C141.367 105.944 141.067 106.363 140.782 106.782C141.921 107.576 142.641 108.699 142.641 109.972C142.641 112.368 140.092 114.299 136.944 114.299C133.795 114.299 131.246 112.353 131.246 109.972C131.246 108.714 131.966 107.591 133.105 106.797C132.791 106.333 132.476 105.869 132.251 105.539C130.707 106.618 129.702 108.19 129.702 109.972C129.702 113.221 132.956 115.857 136.944 115.857C140.932 115.857 144.185 113.221 144.185 109.972C144.185 108.19 143.181 106.618 141.636 105.539L141.651 105.524Z" fill="#6A8237"></path><path d="M194.696 109.972H145.699V111.515H194.696V109.972Z" fill="#6A8237"></path><path d="M128.128 109.972H0V111.515H128.128V109.972Z" fill="#6A8237"></path><path d="M6.04209 74.3926H0.134949V64.4945H6.13204V51.6465H17.0018V64.4945H22.9989V74.3926H17.0018V101.646H6.05708V74.3926H6.04209Z" fill="#443F35"></path><path d="M29.5956 101.661H40.4654V84.6502C40.4654 82.9131 40.4654 81.7002 40.5553 81.0863C40.5553 80.1279 40.6453 79.3492 40.8102 78.7353C40.9001 78.1213 40.9901 77.6871 41.155 77.2528C41.3199 76.8185 41.4999 76.4741 41.6798 76.2046C41.9346 75.7703 42.3694 75.3361 42.8042 74.9018C43.239 74.5574 43.7638 74.213 44.3635 73.8536C45.0531 73.599 45.6678 73.3295 46.2825 73.2397C46.9722 73.06 47.7668 72.9851 48.5464 72.9851C49.7609 72.9851 50.7204 73.1648 51.59 73.4194C52.2796 73.6739 52.8044 74.1082 53.1492 74.5424C53.494 75.0665 53.8389 75.9351 54.1087 77.2378C54.3636 78.7203 54.5435 80.5322 54.5435 82.5388V101.631H65.4133V79.499C65.4133 78.3759 65.4133 76.9833 65.3233 75.4259C65.2333 74.3028 65.1434 73.3445 64.9785 72.6407C64.7986 71.9519 64.6336 71.2481 64.3638 70.6491C64.1089 69.9603 63.7491 69.3463 63.4042 68.9121C62.7895 67.9537 62.0999 67.0852 61.3202 66.4862C60.5406 65.8723 59.671 65.2733 58.5316 64.7492C57.4821 64.3149 56.3577 63.9705 55.2332 63.701C54.0188 63.4464 52.8044 63.3566 51.4101 63.3566C50.0157 63.3566 48.5464 63.5363 46.8972 63.7908C45.5029 64.0454 44.1985 64.5695 42.9841 65.0936C41.8597 65.7075 40.7202 66.3964 39.6857 67.3547V42.8716H29.2508V101.646H29.5956V101.661Z" fill="#443F35"></path><path d="M83.0448 64.4198H72.175V101.661H83.0448V85.1743C83.0448 83.6918 83.1347 81.9698 83.2997 80.053C83.4796 78.1363 83.9144 76.6688 84.5141 75.4559C85.2937 73.8986 86.778 73.1948 88.772 73.1948C90.0764 73.1948 91.0359 73.3745 91.7256 73.8087C92.4152 74.1531 93.2099 74.7671 94.1544 75.4559L98.3224 65.9921C95.9685 64.6893 93.5397 64.0005 91.1109 64.0005H90.1513C87.2877 64.2551 84.9339 65.3033 83.0298 67.2949V64.4347L83.0448 64.4198Z" fill="#443F35"></path><path d="M169.763 77.4325C170.287 76.2196 170.977 75.2613 171.847 74.4826C173.061 73.4344 174.8 73.0001 177.064 73.0001C178.713 73.0001 180.273 73.3445 181.577 73.9585C182.881 74.6473 183.841 75.7854 184.366 77.4325H169.763ZM196 85.7733V82.7335C196 80.0381 195.655 77.4325 194.876 75.0067C194.096 72.5808 192.792 70.4096 190.962 68.4928C187.574 65.0188 182.971 63.2817 177.049 63.2817C171.127 63.2817 166.704 65.1985 163.061 68.9271C159.418 72.6557 157.589 77.4325 157.589 83.1677C157.589 88.9029 159.328 93.9343 162.896 97.5731C166.374 101.212 171.157 103.039 177.064 103.039C181.142 103.039 184.71 102.17 187.844 100.343C189.328 99.4749 190.798 98.3518 192.102 96.8693C192.882 96.0008 193.586 95.1323 194.096 94.3536C194.606 93.5749 195.22 92.6166 195.745 91.5684L186.794 86.7915C184.875 91.0443 181.922 93.2156 177.934 93.3054H177.754C172.536 93.3054 169.583 90.7897 168.893 85.8332H196.015V85.7433L196 85.7733Z" fill="#443F35"></path><path d="M118.428 47.828C112.685 47.3938 107.828 54.0724 107.828 54.0724C107.828 54.0724 106.269 48.1724 96.0135 45.4771C100.181 46.8697 102.265 59.1038 102.265 59.1038V101.646H113.135V60.0621C113.315 57.9807 114.095 49.9095 118.443 47.828H118.428Z" fill="#443F35"></path><path d="M121.546 21.5332C121.546 21.5332 124.755 29.0054 122.326 35.5942C119.897 42.1979 112.76 45.4024 112.76 45.4024C112.76 45.4024 109.552 37.9302 111.981 31.3414C114.41 24.7377 121.546 21.5332 121.546 21.5332Z" fill="#6A8237"></path><path d="M138.158 13.0278C138.158 13.0278 139.462 20.0658 136.164 25.4416C132.866 30.7425 126.254 32.2999 126.254 32.2999C126.254 32.2999 124.949 25.2619 128.248 19.8861C131.546 14.5852 138.158 13.0278 138.158 13.0278Z" fill="#6A8237"></path><path d="M116.254 1.04834C116.254 1.04834 119.552 7.47236 117.993 13.4621C116.434 19.5417 110.511 22.9259 110.511 22.9259C110.511 22.9259 107.213 16.5019 108.772 10.5122C110.421 4.5224 116.254 1.04834 116.254 1.04834Z" fill="#6A8237"></path><path d="M73.4944 19.9606C73.4944 19.9606 80.451 18.2236 86.0133 21.1736C91.5756 24.1235 93.4947 30.6374 93.4947 30.6374C93.4947 30.6374 86.5381 32.3744 80.9758 29.4245C75.5034 26.4745 73.4944 19.9606 73.4944 19.9606Z" fill="#6A8237"></path><path d="M126.329 6.33398C126.329 6.33398 128.248 10.8413 126.943 14.9293C125.549 19.0023 121.381 21.0089 121.381 21.0089C121.381 21.0089 119.462 16.5016 120.766 12.4136C122.161 8.41543 126.329 6.33398 126.329 6.33398Z" fill="#6A8237"></path><path d="M84.529 9.20947C84.529 9.20947 89.3117 9.89829 92.0104 13.2076C94.7091 16.4122 94.2743 21.0243 94.2743 21.0243C94.2743 21.0243 89.4916 20.3355 86.7929 17.0261C84.0942 13.7168 84.529 9.20947 84.529 9.20947Z" fill="#6A8237"></path><path d="M98.2624 0C98.2624 0 103.39 3.38421 104.784 8.5953C106.179 13.8064 103.135 18.7479 103.135 18.7479C103.135 18.7479 98.0075 15.3637 96.6132 10.1526C95.3088 5.0314 98.2624 0 98.2624 0Z" fill="#6A8237"></path><path d="M145.115 31.5061C145.115 31.5061 143.72 39.4874 137.199 43.3957C130.767 47.3041 121.636 45.7467 121.636 45.7467C121.636 45.7467 123.03 37.7654 129.552 33.857C136.074 29.8589 145.115 31.5061 145.115 31.5061Z" fill="#6A8237"></path><path d="M134.59 53.5636C134.59 53.5636 129.897 56.5136 125.369 55.3905C120.856 54.2674 118.068 49.4906 118.068 49.4906C118.068 49.4906 122.76 46.5406 127.288 47.6637C131.801 48.7868 134.59 53.5636 134.59 53.5636Z" fill="#6A8237"></path><path d="M98.0824 17.4453C98.0824 17.4453 106.164 21.8777 108.427 30.0388C110.691 38.1998 106.343 46.885 106.343 46.885C106.343 46.885 98.2623 42.4526 95.9984 34.2915C93.7345 26.2203 98.0824 17.4453 98.0824 17.4453Z" fill="#6A8237"></path><path d="M70.6158 36.1181C70.6158 36.1181 78.6069 31.9552 86.1782 33.9468C93.7346 35.9384 97.9925 43.3208 97.9925 43.3208C97.9925 43.3208 90.0014 47.4836 82.4301 45.492C74.8737 43.5005 70.6158 36.1181 70.6158 36.1181Z" fill="#6A8237"></path><path d="M80.1812 52.7849C80.1812 52.7849 83.6595 47.9183 88.787 47.1396C93.9145 46.4508 98.6072 50.1794 98.6072 50.1794C98.6072 50.1794 95.1289 55.0461 90.0014 55.8247C84.8739 56.5136 80.1812 52.7849 80.1812 52.7849Z" fill="#6A8237"></path><path d="M4.7677 154.566V122.655H10.5999V150.553H18.3361V154.566H4.7677Z" fill="#6A8237"></path><path d="M50.1507 155C47.8868 155 46.0877 154.581 44.7533 153.742C43.419 152.904 42.4444 151.691 41.8747 150.118C41.29 148.546 41.0051 146.674 41.0051 144.518V132.583C41.0051 130.427 41.29 128.585 41.8747 127.043C42.4594 125.5 43.419 124.332 44.7533 123.524C46.0877 122.715 47.9018 122.296 50.1507 122.296C52.3996 122.296 54.2887 122.7 55.608 123.524C56.9274 124.347 57.9019 125.515 58.4866 127.043C59.0864 128.585 59.3712 130.427 59.3712 132.583V144.563C59.3712 146.689 59.0714 148.531 58.4866 150.103C57.9019 151.661 56.9274 152.874 55.608 153.727C54.2737 154.581 52.4596 155 50.1507 155ZM50.1507 150.702C51.1252 150.702 51.8449 150.493 52.2947 150.073C52.7594 149.654 53.0593 149.07 53.2242 148.336C53.3891 147.603 53.4641 146.794 53.4641 145.925V131.236C53.4641 130.337 53.3891 129.544 53.2242 128.825C53.0743 128.121 52.7594 127.552 52.2947 127.148C51.8299 126.743 51.1102 126.534 50.1507 126.534C49.2361 126.534 48.5315 126.743 48.0667 127.148C47.5869 127.552 47.2721 128.106 47.1222 128.825C46.9722 129.529 46.8823 130.337 46.8823 131.236V145.925C46.8823 146.794 46.9572 147.588 47.0922 148.336C47.2271 149.085 47.542 149.654 48.0217 150.073C48.5015 150.493 49.2062 150.702 50.1507 150.702Z" fill="#6A8237"></path><path d="M94.4992 155C92.1604 155 90.3163 154.536 88.9969 153.622C87.6625 152.709 86.748 151.451 86.2082 149.864C85.6835 148.277 85.4136 146.45 85.4136 144.368V132.988C85.4136 130.802 85.6685 128.915 86.2082 127.312C86.733 125.71 87.6625 124.482 88.9969 123.614C90.3313 122.745 92.1604 122.311 94.4992 122.311C96.7032 122.311 98.4423 122.685 99.6867 123.434C100.931 124.183 101.831 125.246 102.355 126.639C102.88 128.031 103.15 129.648 103.15 131.49V134.171H97.5428V131.415C97.5428 130.517 97.4978 129.708 97.4078 128.975C97.3179 128.241 97.063 127.657 96.6582 127.223C96.2534 126.788 95.5487 126.579 94.5442 126.579C93.5397 126.579 92.82 126.803 92.3553 127.268C91.8905 127.732 91.6056 128.346 91.4707 129.124C91.3358 129.903 91.2758 130.772 91.2758 131.745V145.611C91.2758 146.764 91.3658 147.723 91.5457 148.471C91.7256 149.22 92.0704 149.789 92.5502 150.163C93.0299 150.538 93.7046 150.732 94.5442 150.732C95.5187 150.732 96.2084 150.508 96.6132 150.044C97.018 149.579 97.2729 148.98 97.3778 148.217C97.4828 147.453 97.5428 146.6 97.5428 145.656V142.781H103.15V145.342C103.15 147.228 102.895 148.906 102.4 150.358C101.906 151.811 101.021 152.964 99.7767 153.787C98.5323 154.611 96.7781 155.03 94.5142 155.03L94.4992 155Z" fill="#6A8237"></path><path d="M127.438 154.566L133.825 122.655H140.062L146.449 154.566H141.052L139.792 147.198H134.23L132.926 154.566H127.438ZM134.815 143.5H139.148L136.974 130.098L134.8 143.5H134.815Z" fill="#6A8237"></path><path d="M176.075 154.566V122.655H181.907V150.553H189.643V154.566H176.075Z" fill="#6A8237"></path><path d="M129.687 79.4393C128.968 77.6873 128.488 76.0101 128.488 74.6475C128.488 70.0204 132.266 66.2618 136.914 66.2618C141.561 66.2618 145.34 70.0204 145.34 74.6475C145.34 76.0101 144.86 77.6873 144.14 79.4393H153.001C153.481 77.6873 153.765 76.0401 153.765 74.5726C153.765 65.3184 146.209 57.8013 136.914 57.8013C127.618 57.8013 120.062 65.3334 120.062 74.5726C120.062 76.0401 120.347 77.6873 120.826 79.4393H129.687Z" fill="#443F35"></path><path d="M143.121 81.6553C140.617 86.6567 136.914 91.5983 136.914 91.5983C136.914 91.5983 133.195 86.6567 130.707 81.6553H121.516C125.594 93.4102 136.914 108.474 136.914 108.474C136.914 108.474 148.233 93.4102 152.311 81.6553H143.121Z" fill="#6A8237"></path></g><defs><clipPath id="clip0_1_229"><rect width="196" height="155" fill="white"></rect></clipPath></defs></svg> 